<svg fill="none" height="64" viewBox="0 0 64 64" width="64" xmlns="http://www.w3.org/2000/svg"><path d="m0 0h64v64h-64z" fill="#fff"/><path d="m0 0h64v64h-64z" fill="#edf5f3"/><path d="m50.7207 40.9972c-2.8595 0-5.5552-1.5212-7.7981-4.3984-.5946-.7634-1.1259-1.5724-1.5887-2.4191-.4668.8441-.9973 1.6527-1.5872 2.4191-2.2429 2.8786-4.9328 4.3998-7.7996 4.3998s-5.5552-1.5212-7.7981-4.3984c-.5951-.7631-1.1264-1.5721-1.5887-2.4191-.4667.8441-.9973 1.6527-1.5872 2.4191-2.2429 2.8786-4.9328 4.3998-7.7996 4.3998-2.4335-.0006-4.76717-.9493-6.48754-2.6374-1.72037-1.6882-2.68654-3.9775-2.68596-6.3643s.96785-4.6757 2.68904-6.363c1.72119-1.6874 4.05526-2.635 6.48886-2.6344 3.1105 0 5.8903 1.5283 8.0375 4.4211.505.6934.956 1.4231 1.3493 2.1829.394-.7589.845-1.4881 1.3492-2.1814 2.1531-2.8943 4.9328-4.4226 8.0376-4.4226 3.1047 0 5.8758 1.5283 8.023 4.4211.5031.6921.9532 1.4198 1.3464 2.1772.3956-.7568.8476-1.484 1.3521-2.1757 2.1226-2.8929 4.8965-4.4226 8.0231-4.4226 1.2143-.0168 2.42.2031 3.5471.6469s2.1531 1.1027 3.0186 1.9383c.8655.8357 1.5532 1.8316 2.0232 2.93s.7131 2.2773.715 3.4685-.2373 2.3709-.7038 3.4707-1.151 2.0979-2.0138 2.9362c-.8627.8384-1.8866 1.5004-3.0123 1.9477-1.1256.4473-2.3306.6709-3.545.658zm-8.3727-9.0316c.6419 1.4248 1.4758 2.7586 2.4795 3.9658 1.7918 2.1131 3.7721 3.1832 5.8686 3.1832 1.9239 0 3.769-.7496 5.1294-2.0839s2.1246-3.144 2.1246-5.031c0-1.8869-.7642-3.6966-2.1246-5.0309s-3.2055-2.0839-5.1294-2.0839c-5.2665-.01-7.7764 5.5894-8.3481 7.0807zm-18.7576 0c.663 1.4913 3.5023 7.149 8.348 7.149 4.8458 0 7.6894-5.662 8.3509-7.1504-.457-1.2053-2.9582-7.0836-8.3509-7.0836-5.2679-.0057-7.7778 5.5951-8.348 7.085zm-10.427-7.0907c-1.9239 0-3.76904.7496-5.12945 2.0839-1.3604 1.3343-2.12467 3.144-2.12467 5.031 0 1.8869.76427 3.6966 2.12467 5.0309 1.36041 1.3343 3.20555 2.0839 5.12945 2.0839 4.8486 0 7.6893-5.662 8.3509-7.1504-.4556-1.201-2.9582-7.0793-8.3509-7.0793z" stroke="#30f" stroke-width="2"/><g fill="#30f"><path d="m22 30h2v4h-2z"/><path d="m41 30h2v4h-2z"/><path d="m57 27h2v3h-2z"/><path d="m58 30h2v3h-2z"/><path d="m57 34h2v3h-2z"/><path d="m58 32h2v3h-2z"/></g></svg>