<svg width="1440" height="631" viewBox="0 0 1440 631" fill="none" xmlns="http://www.w3.org/2000/svg">
<path d="M1440.02 0H0V623.352C0 623.352 19.68 630.641 24.96 630.911C25.92 630.911 26.88 630.371 26.88 628.752C27.36 626.052 28.32 626.322 29.28 626.862C32.16 628.212 35.52 628.752 38.88 628.212C39.84 627.942 39.84 626.592 39.84 625.242C39.84 623.622 39.84 621.732 39.84 619.843C46.56 619.843 52.8 619.843 55.2 621.192C56.16 621.732 62.88 622.002 67.68 621.732C73.44 621.462 79.68 621.192 82.08 622.542C83.04 622.812 85.92 622.812 87.84 622.812C102.24 623.352 117.12 623.082 131.52 623.082C133.44 623.082 135.36 623.082 136.8 623.082C150.24 623.082 150.24 623.082 153.6 624.972C154.56 625.782 156.48 625.782 160.8 625.782C179.52 625.512 198.24 625.782 216.48 625.512C228.96 625.242 241.92 625.512 254.88 625.242C267.36 624.972 279.84 624.972 291.84 624.972C306.72 624.972 322.08 624.972 336.96 624.972C354.72 625.242 372 624.702 389.76 624.702C397.92 624.702 407.04 625.242 414.24 624.162C419.04 625.242 425.76 624.432 431.52 624.702C435.84 624.702 438.24 624.432 441.6 624.432C440.64 624.162 438.72 624.162 436.8 624.162C435.84 624.162 434.4 623.892 434.4 623.892C435.84 623.622 437.76 623.622 439.2 623.622C442.08 623.352 444.48 623.622 446.4 623.892C446.4 623.892 444.48 624.432 443.52 624.432C448.32 624.702 453.12 624.702 457.92 624.702C461.76 624.702 462.24 624.432 463.2 623.892C467.52 626.052 477.6 626.592 492 626.592C518.88 626.592 546.24 626.592 573.6 626.592C574.56 626.592 575.52 626.592 576.96 626.592C587.04 627.132 597.6 626.862 608.16 626.862C629.76 626.862 651.84 626.862 673.44 626.862C693.6 626.862 713.76 627.402 733.44 627.402C744 627.402 754.08 627.402 764.16 627.402C768.48 627.402 771.36 627.402 769.92 628.212C768.48 629.291 771.84 629.562 778.56 629.562C786.24 629.562 793.92 629.562 801.6 629.562C830.88 629.022 860.16 629.022 889.44 629.022C905.76 629.022 923.04 629.022 939.84 629.022C959.52 629.022 978.72 628.752 998.4 628.752C1022.88 628.752 1047.84 628.752 1072.32 628.752C1101.12 628.752 1130.4 628.752 1159.2 629.022C1171.68 629.022 1184.64 628.752 1197.6 629.022C1209.12 629.022 1220.16 629.292 1231.68 629.292C1268.64 629.561 1306.08 629.831 1343.04 630.371C1351.2 630.371 1358.88 630.641 1367.04 630.911C1376.64 631.181 1377.6 630.911 1379.52 629.022C1380.48 628.482 1379.52 627.402 1387.68 627.132C1391.04 627.132 1392.48 626.862 1393.44 626.592C1397.76 628.212 1401.12 630.371 1404.96 630.641C1405.92 630.641 1406.88 630.101 1406.88 628.482C1407.36 625.782 1408.32 626.052 1409.28 626.592C1412.16 627.942 1415.52 628.482 1418.88 627.942C1419.84 627.672 1419.84 626.322 1419.84 624.972C1419.84 623.622 1419.84 622.542 1419.84 621.192C1420.8 620.652 1422.24 620.112 1426.56 619.843C1428 619.843 1428.96 619.573 1429.44 619.303C1431.84 617.413 1440.02 620.343 1440.02 620.343V0ZM578.88 626.322C578.4 626.322 578.4 626.322 577.92 626.592C577.92 626.322 577.44 626.322 578.88 626.322ZM459.36 623.352C461.76 623.352 462.72 623.622 464.16 623.892C462.24 623.892 458.88 623.892 459.36 623.352Z" fill="url(#paint0_linear)"/>
<defs>
<linearGradient id="paint0_linear" x1="1188" y1="103.609" x2="622.296" y2="726.103" gradientUnits="userSpaceOnUse">
<stop stop-color="#EEF0E4"/>
<stop offset="1" stop-color="#D4F0E8"/>
</linearGradient>
</defs>
</svg>
