<svg width="1440" height="530" viewBox="0 0 1440 530" fill="none" xmlns="http://www.w3.org/2000/svg">
<path d="M1439.52 7.30056C1439.52 7.30056 1431.84 8.89038 1429.44 7.65385C1428.96 7.4772 1428 7.30056 1426.56 7.30056C1422.24 7.12391 1420.8 6.77061 1419.84 6.41732C1419.84 5.53408 1419.84 4.82749 1419.84 3.94426C1419.84 3.06102 1419.84 2.17778 1418.88 2.00114C1415.52 1.64784 1412.16 2.00114 1409.28 2.88437C1408.32 3.23767 1407.36 3.41432 1406.88 1.64784C1406.88 0.587958 1405.92 0.234663 1404.96 0.234663C1401.12 0.41131 1397.76 1.82449 1393.44 2.88437C1392.48 2.70773 1391.04 2.53108 1387.68 2.53108C1379.52 2.35443 1380.48 1.64784 1379.52 1.29455C1377.6 0.0580157 1376.64 -0.118632 1367.04 0.0580158C1358.88 0.234663 1351.2 0.41131 1343.04 0.41131C1306.08 0.764605 1268.64 0.941252 1231.68 1.1179C1220.16 1.1179 1209.12 1.29455 1197.6 1.29455C1184.64 1.47119 1171.68 1.29455 1159.2 1.29455C1130.4 1.47119 1101.12 1.47119 1072.32 1.47119C1047.84 1.47119 1022.88 1.47119 998.4 1.47119C978.72 1.47119 959.52 1.29455 939.84 1.29455C923.04 1.29455 905.76 1.29455 889.44 1.29455C860.16 1.29455 830.88 1.29455 801.6 0.941252C793.92 0.941252 786.24 0.941252 778.56 0.941252C771.84 0.941252 768.48 1.1179 769.92 1.82449C771.36 2.35443 768.48 2.35443 764.16 2.35443C754.08 2.35443 744 2.35443 733.44 2.35443C713.76 2.35443 693.6 2.70773 673.44 2.70773C651.84 2.70773 629.76 2.70773 608.16 2.70773C597.6 2.70773 587.04 2.53108 576.96 2.88437C575.52 2.88437 574.56 2.88437 573.6 2.88437C546.24 2.88437 518.88 2.88437 492 2.88437C477.6 2.88437 467.52 3.23767 463.2 4.65085C462.24 4.29755 461.76 4.1209 457.92 4.1209C453.12 4.1209 448.32 4.1209 443.52 4.29755C444.48 4.29755 446.4 4.65085 446.4 4.65085C444.48 4.82749 442.08 5.00414 439.2 4.82749C437.76 4.82749 435.84 4.82749 434.4 4.65085C434.4 4.65085 435.84 4.4742 436.8 4.4742C438.72 4.4742 440.64 4.4742 441.6 4.29755C438.24 4.29755 435.84 4.1209 431.52 4.1209C425.76 4.29755 419.04 3.76761 414.24 4.4742C407.04 3.76761 397.92 4.1209 389.76 4.1209C372 4.1209 354.72 3.76761 336.96 3.94426C322.08 3.94426 306.72 3.94426 291.84 3.94426C279.84 3.94426 267.36 3.94426 254.88 3.76761C241.92 3.59096 228.96 3.76761 216.48 3.59096C198.24 3.41432 179.52 3.59096 160.8 3.41432C156.48 3.41432 154.56 3.41432 153.6 3.94426C150.24 5.18079 150.24 5.18079 136.8 5.18079C135.36 5.18079 133.44 5.18079 131.52 5.18079C117.12 5.18079 102.24 5.00414 87.84 5.35744C85.92 5.35744 83.04 5.35744 82.08 5.53408C79.68 6.41732 73.44 6.24067 67.68 6.06403C62.88 5.88738 56.16 6.06403 55.2 6.41732C52.8 7.30056 46.56 7.30056 39.84 7.30056C39.84 6.06403 39.84 4.82749 39.84 3.76761C39.84 2.88437 39.84 2.00114 38.88 1.82449C35.52 1.47119 32.16 1.82449 29.28 2.70773C28.32 3.06102 27.36 3.23767 26.88 1.47119C26.88 0.41131 25.92 0.0580158 24.96 0.0580158C19.68 0.234663 0 5.00414 0 5.00414V720H1440L1439.52 7.30056ZM577.92 2.88437C578.4 3.06102 578.4 3.06102 578.88 3.06102C577.44 3.06102 577.92 3.06102 577.92 2.88437ZM464.16 4.65085C462.72 4.82749 461.76 5.00414 459.36 5.00414C458.88 4.65085 462.24 4.65085 464.16 4.65085Z" fill="url(#paint0_linear)"/>
<defs>
<linearGradient id="paint0_linear" x1="1187.98" y1="118.222" x2="539.96" y2="743.147" gradientUnits="userSpaceOnUse">
<stop stop-color="#EEF0E4"/>
<stop offset="1" stop-color="#D4F0E8"/>
</linearGradient>
</defs>
</svg>
