<svg width="152" height="38" viewBox="0 0 152 38" fill="none" xmlns="http://www.w3.org/2000/svg">
<path d="M0.269043 1.28931H8.67612V36.9143H0.269043V1.28931Z" fill="#24244C"/>
<path d="M69.476 36.9143V1.28931H61.069V23.0714L44.9274 1.28931H41.2282H36.8566V23.0714L20.7822 1.28931H12.7114V36.9143H21.1185V15.2L37.1928 36.9143H38.6052H43.3805H45.3309V15.2L61.4052 36.9143H69.476Z" fill="#24244C"/>
<path d="M90.9983 8.7537C96.7151 8.7537 100.818 12.9608 100.818 19.068C100.818 25.1751 96.7151 29.3823 90.9983 29.3823C85.2142 29.3823 81.1788 25.1751 81.1788 19.068C81.1788 12.9608 85.2814 8.7537 90.9983 8.7537ZM90.9983 0.61084C80.1027 0.61084 72.3682 8.48227 72.3682 19.068C72.3682 29.6537 80.1027 37.5251 90.9983 37.5251C101.894 37.5251 109.628 29.6537 109.628 19.068C109.628 8.48227 101.894 0.61084 90.9983 0.61084Z" fill="#24244C"/>
<path d="M130.612 8.7537C136.329 8.7537 140.432 12.9608 140.432 19.068C140.432 20.2216 140.297 21.3073 140.028 22.3251L138.885 20.7644H129.738L135.32 28.2966C133.975 28.9751 132.361 29.3823 130.68 29.3823C124.963 29.3823 120.86 25.1751 120.86 19.068C120.793 13.0287 124.896 8.7537 130.612 8.7537ZM130.612 0.61084C119.717 0.61084 111.982 8.48227 111.982 19.068C111.982 29.6537 119.717 37.5251 130.612 37.5251C134.312 37.5251 137.473 36.5073 140.163 34.743L141.71 36.8466H151.597L146.014 29.2466C147.965 26.3966 149.108 23.0716 149.108 19.068C149.243 8.48227 141.508 0.61084 130.612 0.61084Z" fill="#3300FF"/>
</svg>
