<svg width="125" height="25" viewBox="0 0 125 25" fill="none" xmlns="http://www.w3.org/2000/svg">
<path d="M70.1 6H65.36L62.19 14.89L59 6H54.27V20H57.61V10.45L60.41 18.68H63.96L66.76 10.42V20H70.1V6ZM84.0289 16.9H76.9889V6H73.6489V20H84.0289V16.9ZM92.8161 5.74C88.4961 5.74 85.4361 8.82 85.4361 13C85.4361 17.18 88.4961 20.26 92.8161 20.26C97.1361 20.26 100.196 17.18 100.196 13C100.196 8.82 97.1361 5.74 92.8161 5.74ZM92.8161 8.94C95.0961 8.94 96.7161 10.6 96.7161 13C96.7161 15.4 95.0961 17.06 92.8161 17.06C90.5361 17.06 88.9161 15.4 88.9161 13C88.9161 10.6 90.5361 8.94 92.8161 8.94ZM108.809 9.92C107.479 9.92 106.589 10.48 105.999 11.25V10.19H102.979V24H106.099V19.07C106.689 19.77 107.549 20.26 108.809 20.26C111.429 20.26 113.379 17.98 113.379 15.08C113.379 12.2 111.429 9.92 108.809 9.92ZM108.059 12.84C109.319 12.84 110.159 13.81 110.159 15.09C110.159 16.37 109.319 17.34 108.059 17.34C106.829 17.34 105.969 16.39 105.969 15.09C105.969 13.79 106.829 12.84 108.059 12.84ZM124.163 10.77C122.553 10.15 121.533 9.93 119.943 9.93C117.273 9.93 115.703 11.12 115.703 13.21C115.703 14.97 116.803 15.95 119.163 16.3L119.733 16.38C120.843 16.55 121.283 16.7 121.283 17.08C121.283 17.5 120.883 17.72 119.913 17.72C118.553 17.72 117.433 17.38 116.453 16.8L115.363 19.22C116.483 19.95 118.213 20.25 119.893 20.25C122.753 20.25 124.433 18.96 124.433 16.81C124.433 15.16 123.323 14.15 121.223 13.83L120.503 13.72C119.543 13.57 118.923 13.47 118.923 13.05C118.923 12.69 119.243 12.45 120.063 12.45C121.062 12.46 122.323 12.8 123.293 13.21L124.163 10.77Z" fill="#3300FF"/>
<path d="M36.7091 20.4174C34.4623 20.4174 32.3443 19.1988 30.582 16.8939C30.1148 16.2823 29.6974 15.6343 29.3338 14.956C28.967 15.6322 28.5502 16.2799 28.0867 16.8939C26.3244 19.2 24.211 20.4185 21.9585 20.4185C19.706 20.4185 17.5937 19.2 15.8313 16.895C15.3637 16.2837 14.9463 15.6357 14.5831 14.9571C14.2164 15.6333 13.7995 16.2811 13.336 16.895C11.5737 19.2011 9.46027 20.4197 7.20777 20.4197C5.2957 20.4192 3.46212 19.6592 2.1104 18.3069C0.75868 16.9545 -0.000453289 15.1206 2.03064e-07 13.2085C0.000453695 11.2964 0.760457 9.46283 2.11282 8.11111C3.46518 6.75939 5.29912 6.00026 7.21119 6.00071C9.6552 6.00071 11.8393 7.225 13.5264 9.54247C13.9231 10.0979 14.2775 10.6825 14.5865 11.2911C14.8961 10.6832 15.2505 10.0991 15.6467 9.54361C17.3383 7.225 19.5224 6.00071 21.9619 6.00071C24.4013 6.00071 26.5786 7.225 28.2657 9.54247C28.661 10.0968 29.0146 10.6798 29.3235 11.2866C29.6344 10.6803 29.9895 10.0977 30.3859 9.54361C32.0537 7.22614 34.2332 6.00071 36.6898 6.00071C37.6439 5.9873 38.5912 6.16346 39.4768 6.51897C40.3624 6.87448 41.1685 7.40228 41.8485 8.07174C42.5286 8.7412 43.0689 9.53902 43.4382 10.4189C43.8075 11.2988 43.9985 12.2433 44 13.1975C44.0015 14.1518 43.8135 15.0968 43.447 15.9779C43.0805 16.8589 42.5427 17.6585 41.8648 18.3301C41.1869 19.0017 40.3824 19.532 39.498 19.8903C38.6135 20.2486 37.6668 20.4278 36.7126 20.4174H36.7091ZM30.1306 13.1823C30.6349 14.3236 31.2902 15.3922 32.0787 16.3592C33.4866 18.052 35.0426 18.9093 36.6898 18.9093C38.2014 18.9093 39.6511 18.3088 40.72 17.2399C41.7889 16.171 42.3894 14.7213 42.3894 13.2096C42.3894 11.698 41.7889 10.2483 40.72 9.17937C39.6511 8.11048 38.2014 7.50998 36.6898 7.50998C32.5518 7.502 30.5797 11.9876 30.1306 13.1823ZM15.3925 13.1823C15.9134 14.3769 18.1443 18.9093 21.9516 18.9093C25.759 18.9093 27.9932 14.3735 28.513 13.1811C28.154 12.2156 26.1887 7.50656 21.9516 7.50656C17.8125 7.502 15.8405 11.9888 15.3925 13.1823ZM7.19979 7.502C5.68815 7.502 4.23842 8.1025 3.16953 9.17139C2.10064 10.2403 1.50015 11.69 1.50015 13.2016C1.50015 14.7133 2.10064 16.163 3.16953 17.2319C4.23842 18.3008 5.68815 18.9013 7.19979 18.9013C11.0094 18.9013 13.2414 14.3655 13.7612 13.1731C13.4033 12.211 11.4369 7.502 7.19979 7.502Z" fill="#3300FF"/>
</svg>
