<svg width="665" height="219" viewBox="0 0 665 219" fill="none" xmlns="http://www.w3.org/2000/svg">
<path d="M318.131 83.7902H313.632L309.639 94.1853L305.635 83.7902H301.136V99.1903H304.205V87.6513L308.011 97.7052H311.256L315.062 87.5633V99.1903H318.131V83.7902Z" fill="#3300FF"/>
<path d="M326.483 88.2453C323.172 88.2453 320.73 90.6433 320.73 93.8553C320.73 97.0673 323.172 99.4653 326.483 99.4653C329.805 99.4653 332.258 97.0673 332.258 93.8553C332.258 90.6433 329.805 88.2453 326.483 88.2453ZM326.483 90.9183C328.1 90.9183 329.321 92.1283 329.321 93.8553C329.321 95.5823 328.1 96.7922 326.483 96.7922C324.866 96.7922 323.656 95.5823 323.656 93.8553C323.656 92.1283 324.866 90.9183 326.483 90.9183Z" fill="#3300FF"/>
<path d="M339.102 88.2453C336.165 88.2453 333.943 90.6543 333.943 93.8553C333.943 97.0563 336.165 99.4653 339.102 99.4653C340.565 99.4653 341.599 98.8713 342.292 98.0133V99.1903H345.097V83.3503H342.237V89.6423C341.544 88.8063 340.532 88.2453 339.102 88.2453ZM339.63 90.9183C341.269 90.9183 342.38 92.1723 342.38 93.8553C342.38 95.5383 341.269 96.7922 339.63 96.7922C337.947 96.7922 336.88 95.4833 336.88 93.8553C336.88 92.2273 337.947 90.9183 339.63 90.9183Z" fill="#3300FF"/>
<path d="M352.846 88.2453C349.656 88.2453 347.456 90.5332 347.456 93.8883C347.456 97.2433 349.722 99.4653 352.989 99.4653C354.782 99.4653 356.322 98.9592 357.532 97.8482L355.849 96.0002C355.079 96.6493 354.078 97.0233 353.154 97.0233C351.801 97.0233 350.723 96.3523 350.415 94.8123H357.972C358.005 94.5703 358.027 94.1742 358.027 93.8442C358.016 90.5222 355.915 88.2453 352.846 88.2453ZM352.824 90.7203C354.056 90.7203 354.881 91.4902 355.145 92.8542H350.426C350.679 91.5342 351.471 90.7203 352.824 90.7203Z" fill="#3300FF"/>
<path d="M363.233 83.3503H360.362V99.1903H363.233V83.3503Z" fill="#3300FF"/>
<path d="M263.151 107.79V123.19H269.498C274.316 123.19 277.495 120.132 277.495 115.49C277.495 110.848 274.316 107.79 269.498 107.79H263.151ZM269.465 110.661C272.71 110.661 274.283 112.663 274.283 115.49C274.283 118.284 272.71 120.319 269.465 120.319H266.22V110.661H269.465Z" fill="#3300FF"/>
<path d="M284.784 112.245C281.594 112.245 279.394 114.533 279.394 117.888C279.394 121.243 281.66 123.465 284.927 123.465C286.72 123.465 288.26 122.959 289.47 121.848L287.787 120C287.017 120.649 286.016 121.023 285.092 121.023C283.739 121.023 282.661 120.352 282.353 118.812H289.91C289.943 118.57 289.965 118.174 289.965 117.844C289.954 114.522 287.853 112.245 284.784 112.245ZM284.762 114.72C285.994 114.72 286.819 115.49 287.083 116.854H282.364C282.617 115.534 283.409 114.72 284.762 114.72Z" fill="#3300FF"/>
<path d="M302.383 112.531H299.358L296.575 120.165L293.814 112.531H290.69L294.903 123.19H298.214L302.383 112.531Z" fill="#3300FF"/>
<path d="M308.524 112.245C305.334 112.245 303.134 114.533 303.134 117.888C303.134 121.243 305.4 123.465 308.667 123.465C310.46 123.465 312 122.959 313.21 121.848L311.527 120C310.757 120.649 309.756 121.023 308.832 121.023C307.479 121.023 306.401 120.352 306.093 118.812H313.65C313.683 118.57 313.705 118.174 313.705 117.844C313.694 114.522 311.593 112.245 308.524 112.245ZM308.502 114.72C309.734 114.72 310.559 115.49 310.823 116.854H306.104C306.357 115.534 307.149 114.72 308.502 114.72Z" fill="#3300FF"/>
<path d="M318.911 107.35H316.04V123.19H318.911V107.35Z" fill="#3300FF"/>
<path d="M327.02 112.245C323.709 112.245 321.267 114.643 321.267 117.855C321.267 121.067 323.709 123.465 327.02 123.465C330.342 123.465 332.795 121.067 332.795 117.855C332.795 114.643 330.342 112.245 327.02 112.245ZM327.02 114.918C328.637 114.918 329.858 116.128 329.858 117.855C329.858 119.582 328.637 120.792 327.02 120.792C325.403 120.792 324.193 119.582 324.193 117.855C324.193 116.128 325.403 114.918 327.02 114.918Z" fill="#3300FF"/>
<path d="M341.124 112.245C339.661 112.245 338.638 112.839 337.945 113.708V112.531H335.14V127.59H338V122.079C338.693 122.904 339.705 123.465 341.135 123.465C344.072 123.465 346.294 121.056 346.294 117.855C346.294 114.654 344.072 112.245 341.124 112.245ZM340.596 114.918C342.29 114.918 343.346 116.227 343.346 117.855C343.346 119.483 342.29 120.792 340.596 120.792C338.968 120.792 337.857 119.538 337.857 117.855C337.857 116.172 338.968 114.918 340.596 114.918Z" fill="#3300FF"/>
<path d="M361.7 112.245C360.303 112.245 358.906 112.718 358.081 114.071C357.366 112.938 356.101 112.245 354.561 112.245C353.351 112.245 352.185 112.652 351.426 113.785V112.531H348.632V123.19H351.503V117.349C351.503 115.743 352.526 114.94 353.758 114.94C355.067 114.94 355.837 115.787 355.837 117.327V123.19H358.708V117.349C358.708 115.743 359.731 114.94 360.963 114.94C362.261 114.94 363.042 115.787 363.042 117.327V123.19H365.902V116.403C365.902 113.928 364.208 112.245 361.7 112.245Z" fill="#3300FF"/>
<path d="M373.557 112.245C370.367 112.245 368.167 114.533 368.167 117.888C368.167 121.243 370.433 123.465 373.7 123.465C375.493 123.465 377.033 122.959 378.243 121.848L376.56 120C375.79 120.649 374.789 121.023 373.865 121.023C372.512 121.023 371.434 120.352 371.126 118.812H378.683C378.716 118.57 378.738 118.174 378.738 117.844C378.727 114.522 376.626 112.245 373.557 112.245ZM373.535 114.72C374.767 114.72 375.592 115.49 375.856 116.854H371.137C371.39 115.534 372.182 114.72 373.535 114.72Z" fill="#3300FF"/>
<path d="M387.002 112.245C385.792 112.245 384.626 112.652 383.867 113.785V112.531H381.073V123.19H383.944V117.349C383.944 115.743 384.967 114.94 386.199 114.94C387.508 114.94 388.278 115.787 388.278 117.327V123.19H391.149V116.403C391.149 113.928 389.422 112.245 387.002 112.245Z" fill="#3300FF"/>
<path d="M401.697 112.531H397.836V109.363H394.965V112.531H392.908V115.083H394.965V119.208C394.965 121.969 396.318 123.465 398.958 123.465C400.476 123.465 401.554 122.981 402.489 122.343L401.433 120.099C400.85 120.451 400.113 120.792 399.431 120.792C398.54 120.792 397.836 120.308 397.836 118.977V115.083H401.697V112.531Z" fill="#3300FF"/>
<path d="M74.9512 94.7902V110.19H81.2982C86.1162 110.19 89.2952 107.132 89.2952 102.49C89.2952 97.8482 86.1162 94.7902 81.2982 94.7902H74.9512ZM81.2652 97.6612C84.5102 97.6612 86.0832 99.6632 86.0832 102.49C86.0832 105.284 84.5102 107.319 81.2652 107.319H78.0202V97.6612H81.2652Z" fill="#3300FF"/>
<path d="M96.5837 99.2452C93.3937 99.2452 91.1937 101.533 91.1937 104.888C91.1937 108.243 93.4597 110.465 96.7267 110.465C98.5197 110.465 100.06 109.959 101.27 108.848L99.5867 107C98.8167 107.649 97.8157 108.023 96.8917 108.023C95.5387 108.023 94.4607 107.352 94.1527 105.812H101.71C101.743 105.57 101.765 105.174 101.765 104.844C101.754 101.522 99.6527 99.2452 96.5837 99.2452ZM96.5617 101.72C97.7937 101.72 98.6187 102.49 98.8827 103.854H94.1637C94.4167 102.534 95.2087 101.72 96.5617 101.72Z" fill="#3300FF"/>
<path d="M112.627 100.268C111.208 99.5752 109.877 99.2562 108.172 99.2562C105.367 99.2562 103.673 100.554 103.673 102.743C103.673 104.558 104.894 105.636 107.358 105.977L108.227 106.098C109.459 106.274 109.998 106.56 109.998 107.077C109.998 107.704 109.36 108.078 108.029 108.078C106.423 108.078 105.312 107.638 104.399 107.033L103.266 109.211C104.652 110.19 106.555 110.465 108.007 110.465C111.098 110.465 112.902 109.046 112.902 106.846C112.902 105.042 111.615 104.008 109.305 103.656L108.359 103.513C107.391 103.37 106.621 103.216 106.621 102.6C106.621 102.017 107.171 101.632 108.26 101.632C109.459 101.643 110.812 102.083 111.659 102.501L112.627 100.268Z" fill="#3300FF"/>
<path d="M118.035 99.5312H115.164V110.19H118.035V99.5312ZM116.583 94.1962C115.549 94.1962 114.757 95.0102 114.757 96.0442C114.757 97.0782 115.549 97.8702 116.583 97.8702C117.617 97.8702 118.42 97.0782 118.42 96.0442C118.42 95.0102 117.617 94.1962 116.583 94.1962Z" fill="#3300FF"/>
<path d="M125.297 99.2452C122.701 99.2452 120.391 101.412 120.391 104.69C120.391 107.957 122.701 110.124 125.297 110.124C126.771 110.124 127.849 109.574 128.575 108.683V109.431C128.575 111.268 127.321 112.258 125.539 112.258C124.263 112.258 123.086 111.873 122.019 111.169L120.996 113.512C122.195 114.359 123.977 114.799 125.66 114.799C129.18 114.799 131.413 112.731 131.413 109.31V99.5312H128.597V100.719C127.871 99.8172 126.782 99.2452 125.297 99.2452ZM126.023 101.885C127.618 101.885 128.696 103.095 128.696 104.69C128.696 106.274 127.618 107.484 126.023 107.484C124.384 107.484 123.339 106.23 123.339 104.69C123.339 103.139 124.384 101.885 126.023 101.885Z" fill="#3300FF"/>
<path d="M140.365 99.2452C139.155 99.2452 137.989 99.6522 137.23 100.785V99.5312H134.436V110.19H137.307V104.349C137.307 102.743 138.33 101.94 139.562 101.94C140.871 101.94 141.641 102.787 141.641 104.327V110.19H144.512V103.403C144.512 100.928 142.785 99.2452 140.365 99.2452Z" fill="#3300FF"/>
<path d="M504.742 94.5042C500.001 94.5042 496.657 97.8922 496.657 102.49C496.657 107.088 500.001 110.476 504.742 110.476C509.483 110.476 512.838 107.088 512.838 102.49C512.838 97.8922 509.483 94.5042 504.742 94.5042ZM504.742 97.4522C507.58 97.4522 509.626 99.4982 509.626 102.49C509.626 105.482 507.58 107.528 504.742 107.528C501.915 107.528 499.858 105.482 499.858 102.49C499.858 99.4982 501.915 97.4522 504.742 97.4522Z" fill="#3300FF"/>
<path d="M521.333 99.2452C519.87 99.2452 518.847 99.8392 518.154 100.708V99.5312H515.349V114.59H518.209V109.079C518.902 109.904 519.914 110.465 521.344 110.465C524.281 110.465 526.503 108.056 526.503 104.855C526.503 101.654 524.281 99.2452 521.333 99.2452ZM520.805 101.918C522.499 101.918 523.555 103.227 523.555 104.855C523.555 106.483 522.499 107.792 520.805 107.792C519.177 107.792 518.066 106.538 518.066 104.855C518.066 103.172 519.177 101.918 520.805 101.918Z" fill="#3300FF"/>
<path d="M533.571 99.2452C530.381 99.2452 528.181 101.533 528.181 104.888C528.181 108.243 530.447 110.465 533.714 110.465C535.507 110.465 537.047 109.959 538.257 108.848L536.574 107C535.804 107.649 534.803 108.023 533.879 108.023C532.526 108.023 531.448 107.352 531.14 105.812H538.697C538.73 105.57 538.752 105.174 538.752 104.844C538.741 101.522 536.64 99.2452 533.571 99.2452ZM533.549 101.72C534.781 101.72 535.606 102.49 535.87 103.854H531.151C531.404 102.534 532.196 101.72 533.549 101.72Z" fill="#3300FF"/>
<path d="M546.873 99.2452C545.564 99.2452 544.541 99.6962 543.87 100.697V99.5312H541.087V110.19H543.958V104.382C543.958 102.798 544.871 101.984 546.202 101.984C546.785 101.984 547.467 102.116 547.94 102.325L548.369 99.4762C547.973 99.3332 547.489 99.2452 546.873 99.2452Z" fill="#3300FF"/>
<path d="M560.454 99.5312H557.649V100.708C556.945 99.8392 555.922 99.2452 554.459 99.2452C551.522 99.2452 549.3 101.654 549.3 104.855C549.3 108.056 551.522 110.465 554.459 110.465C555.922 110.465 556.956 109.871 557.649 109.013V110.19H560.454V99.5312ZM554.987 101.918C556.626 101.918 557.737 103.172 557.737 104.855C557.737 106.538 556.626 107.792 554.987 107.792C553.304 107.792 552.237 106.483 552.237 104.855C552.237 103.227 553.304 101.918 554.987 101.918Z" fill="#3300FF"/>
<path d="M571.207 99.5312H567.346V96.3632H564.475V99.5312H562.418V102.083H564.475V106.208C564.475 108.969 565.828 110.465 568.468 110.465C569.986 110.465 571.064 109.981 571.999 109.343L570.943 107.099C570.36 107.451 569.623 107.792 568.941 107.792C568.05 107.792 567.346 107.308 567.346 105.977V102.083H571.207V99.5312Z" fill="#3300FF"/>
<path d="M576.615 99.5312H573.744V110.19H576.615V99.5312ZM575.163 94.1962C574.129 94.1962 573.337 95.0102 573.337 96.0442C573.337 97.0782 574.129 97.8702 575.163 97.8702C576.197 97.8702 577 97.0782 577 96.0442C577 95.0102 576.197 94.1962 575.163 94.1962Z" fill="#3300FF"/>
<path d="M584.723 99.2452C581.412 99.2452 578.97 101.643 578.97 104.855C578.97 108.067 581.412 110.465 584.723 110.465C588.045 110.465 590.498 108.067 590.498 104.855C590.498 101.643 588.045 99.2452 584.723 99.2452ZM584.723 101.918C586.34 101.918 587.561 103.128 587.561 104.855C587.561 106.582 586.34 107.792 584.723 107.792C583.106 107.792 581.896 106.582 581.896 104.855C581.896 103.128 583.106 101.918 584.723 101.918Z" fill="#3300FF"/>
<path d="M598.772 99.2452C597.562 99.2452 596.396 99.6522 595.637 100.785V99.5312H592.843V110.19H595.714V104.349C595.714 102.743 596.737 101.94 597.969 101.94C599.278 101.94 600.048 102.787 600.048 104.327V110.19H602.919V103.403C602.919 100.928 601.192 99.2452 598.772 99.2452Z" fill="#3300FF"/>
<path d="M614.454 100.268C613.035 99.5752 611.704 99.2562 609.999 99.2562C607.194 99.2562 605.5 100.554 605.5 102.743C605.5 104.558 606.721 105.636 609.185 105.977L610.054 106.098C611.286 106.274 611.825 106.56 611.825 107.077C611.825 107.704 611.187 108.078 609.856 108.078C608.25 108.078 607.139 107.638 606.226 107.033L605.093 109.211C606.479 110.19 608.382 110.465 609.834 110.465C612.925 110.465 614.729 109.046 614.729 106.846C614.729 105.042 613.442 104.008 611.132 103.656L610.186 103.513C609.218 103.37 608.448 103.216 608.448 102.6C608.448 102.017 608.998 101.632 610.087 101.632C611.286 101.643 612.639 102.083 613.486 102.501L614.454 100.268Z" fill="#3300FF"/>
<path d="M208.788 76.9368C211.508 81.5369 214.065 86.3418 216.458 91.3513C217.646 93.8629 218.813 96.416 219.911 99.0312C220.456 100.342 221.002 101.653 221.519 102.992L221.927 104.041L222.576 105.786C222.999 106.95 223.425 108.121 223.853 109.299L222.32 112.949L221.582 114.688L221.119 115.736C220.491 117.116 219.855 118.497 219.193 119.918C217.888 122.678 216.493 125.438 215.05 128.198C212.159 133.663 209.031 139.048 205.667 144.351C198.918 155.066 191.151 165.107 182.474 174.333L179.126 177.741C178.021 178.887 176.813 179.936 175.673 181.033L173.927 182.661C173.347 183.199 172.718 183.703 172.118 184.221C170.896 185.249 169.701 186.291 168.465 187.298C163.497 191.264 158.224 194.833 152.695 197.973L148.518 200.174C147.096 200.864 145.653 201.499 144.23 202.161C142.808 202.823 141.323 203.355 139.873 203.934L137.685 204.776L135.461 205.466L133.238 206.156L132.127 206.508L131.001 206.791L126.513 207.895L122.005 208.709L120.879 208.902L119.747 209.034L117.503 209.296C113.06 209.775 108.588 209.934 104.122 209.772L100.773 209.565C100.214 209.565 99.6546 209.503 99.0954 209.454L97.4245 209.268L94.0758 208.875L90.7409 208.33C90.1816 208.233 89.6223 208.15 89.07 208.04L87.4129 207.681C86.3082 207.44 85.1965 207.212 84.0987 206.943C81.9169 206.336 79.7005 205.811 77.5532 205.059C73.1983 203.674 68.9481 201.979 64.8351 199.987C48.0644 191.891 33.8634 179.313 23.8048 163.648C13.7461 147.982 8.22232 129.84 7.84516 111.231C7.65715 102.067 8.7069 92.9201 10.966 84.0371L11.8843 80.7595L12.3538 79.1173L12.8993 77.5095L13.9902 74.2941L15.233 71.1476C15.447 70.6232 15.6473 70.0919 15.8613 69.5744L16.5518 68.0356C17.0213 67.0144 17.4701 65.9656 17.9327 64.972C18.9684 62.9847 19.9281 60.9561 21.088 59.0447C21.3573 59.2034 20.9499 60.6801 20.9085 61.4874C20.8671 62.2947 21.1088 62.4258 22.7175 59.9762C24.3263 57.5267 25.7762 55.4359 27.0812 53.6281L29.0697 51.2061C29.6773 50.4609 30.2434 49.7847 30.8096 49.1913C31.935 47.9976 32.881 47.0039 33.6957 46.2311C34.5104 45.4583 35.2423 44.8511 35.8223 44.444C36.4794 43.8245 37.2897 43.3911 38.1698 43.1881C38.3444 43.1708 38.5205 43.1963 38.683 43.2624C38.8454 43.3285 38.9892 43.4333 39.1019 43.5676C39.316 43.7678 36.4437 46.8659 34.2688 49.6398L32.7705 51.5442C32.3355 52.11 32.0179 52.6138 31.797 52.9243C31.3689 53.6143 31.4379 53.6143 32.3769 52.5862C29.6486 56.3129 27.1956 60.2334 25.0374 64.3164C23.0658 68.1023 21.3631 72.0221 19.9419 76.0467C19.1922 78.0672 18.6035 80.1437 18.1812 82.2569C18.1812 82.7951 18.6093 81.4633 20.1352 77.5854L21.2952 75.0324C21.7716 73.9905 22.2342 72.7277 22.8901 71.4167C23.2077 70.7267 23.5322 70.0367 23.8637 69.3467L24.3746 68.2633L24.9477 67.1662C25.721 65.6896 26.4874 64.1439 27.3919 62.6673C27.8269 61.9221 28.2687 61.1769 28.6968 60.4385L30.0777 58.3202C30.5403 57.6302 30.9753 56.9402 31.4586 56.2984L32.8395 54.463C33.2814 53.8834 33.7026 53.3176 34.1169 52.807C34.5311 52.2964 34.9661 51.8478 35.339 51.4269C35.9491 50.7144 36.5991 50.0371 37.2861 49.3983C39.4265 47.6042 38.9017 48.9843 38.377 50.2953C37.8522 51.6063 37.431 52.9864 39.4265 51.1992C40.3171 50.2056 41.3735 48.9084 42.6233 47.5697C43.873 46.2311 45.2539 44.8097 46.766 43.4296C48.2781 42.0496 49.7142 40.7041 51.102 39.5311C52.4898 38.358 53.8638 37.3575 54.8788 36.5157C57.2263 35.2115 56.4047 36.3708 55.5692 37.461C54.7338 38.5512 53.9467 39.6346 55.9973 38.0199C59.4652 35.6352 63.0584 33.4378 66.7615 31.4372C70.903 29.2461 75.1892 27.3395 79.5901 25.7307C89.1943 22.2836 99.3164 20.4985 109.521 20.4521C109.521 20.7626 110.902 21.0731 110.902 21.3491C110.902 21.4871 110.564 21.6113 109.521 21.7286C108.479 21.8459 106.953 21.9701 104.405 22.1771C87.394 23.252 71.0705 29.2826 57.4505 39.5243C43.8305 49.766 33.5104 63.7701 27.7647 79.8073C26.3621 83.8038 25.2341 87.8913 24.3884 92.0413C23.5984 96.2049 23.0863 100.416 22.8556 104.648C22.8142 105.711 22.8073 106.766 22.7796 107.829C22.7796 108.36 22.7796 108.891 22.7796 109.423L22.828 111.01C22.8694 112.072 22.8625 113.135 22.9385 114.191L23.1939 117.358C23.2492 118.421 23.4563 119.428 23.5737 120.511C23.691 121.595 23.8291 122.616 24.0432 123.651L24.6163 126.777L25.3481 129.868C29.4999 146.425 38.4434 161.392 51.0606 172.897C54.1943 175.744 57.516 178.376 61.0031 180.777C64.5404 183.126 68.2311 185.235 72.0503 187.091C75.8818 188.893 79.8283 190.439 83.864 191.721C87.916 192.938 92.0449 193.883 96.2231 194.55C100.412 195.166 104.638 195.494 108.872 195.53C109.404 195.53 109.929 195.53 110.446 195.53L112.007 195.475L113.574 195.42H114.354L115.128 195.344C117.199 195.116 119.27 194.971 121.342 194.557C125.451 193.87 129.495 192.838 133.432 191.473L136.359 190.348C136.842 190.162 137.34 189.989 137.823 189.782L139.252 189.127L142.117 187.822L144.914 186.339C146.806 185.407 148.58 184.221 150.403 183.137C151.321 182.613 152.17 181.957 153.061 181.364L155.692 179.549L158.24 177.583C159.089 176.893 159.959 176.306 160.767 175.582L163.225 173.477L164.398 172.359L165.579 171.241C171.978 165.262 177.865 158.758 183.179 151.797C184.56 150.072 185.823 148.257 187.128 146.484L189.027 143.758C189.669 142.854 190.29 141.943 190.898 140.998C193.37 137.32 195.69 133.539 197.927 129.702C200.164 125.866 202.29 121.967 204.286 118.013C205.28 116.033 206.254 114.046 207.179 112.045C207.648 111.051 208.097 110.051 208.56 109.05L208.643 108.864L208.587 108.726L208.208 107.732C207.697 106.407 207.172 105.09 206.62 103.778C205.529 101.143 204.362 98.5343 203.167 95.9537C200.723 90.7924 198.058 85.7345 195.165 80.8285C192.283 75.9618 189.158 71.2431 185.802 66.6901C184.152 64.3854 182.35 62.2119 180.61 59.9969L179.92 59.1758L179.229 58.3823L177.848 56.7953C176.916 55.7533 176.039 54.6493 175.052 53.6695L172.152 50.6541C171.192 49.6398 170.143 48.7359 169.149 47.7698L167.63 46.3415C167.133 45.8585 166.587 45.4376 166.062 44.9615L162.907 42.2911C158.616 38.8995 154.068 35.8451 149.305 33.1553C144.542 30.5844 139.558 28.4459 134.412 26.7657L130.566 25.6479C129.261 25.3098 127.942 25.0476 126.631 24.7371C125.319 24.4266 123.979 24.2265 122.647 24.0471C121.314 23.8677 119.988 23.5848 118.635 23.4951L115.273 23.1156C114.285 23.0121 113.408 22.9914 112.67 22.9293C111.171 22.8189 110.163 22.7016 109.57 22.5981C108.976 22.4945 108.727 22.4117 108.914 22.3082C109.407 22.132 109.923 22.0274 110.446 21.9977C112.988 21.7071 115.547 21.601 118.104 21.6803C118.925 21.6803 119.795 21.6803 120.686 21.7424L123.448 21.977C124.38 22.0736 125.339 22.1012 126.292 22.2668L129.165 22.7154C128.15 22.5658 127.145 22.3585 126.154 22.0943C125.367 21.8735 124.732 21.7424 124.083 21.5492C123.434 21.356 122.826 21.1973 122.011 21.0317C121.611 20.9489 121.169 20.873 120.665 20.7971C120.161 20.7212 119.553 20.6936 118.898 20.6936C118.898 20.4728 119.588 20.2175 120.969 20.1071C121.659 20.0726 122.474 20.0519 123.475 20.0657L125.105 20.1002L126.009 20.1347L126.969 20.2382C132.272 20.6867 140.295 22.3082 149.989 27.0556L148.187 26.1447L147.282 25.6824L146.364 25.2822L142.656 23.6814C141.413 23.157 140.129 22.7568 138.865 22.3013L136.967 21.6113L135.027 21.0524C129.931 19.2515 135.275 20.1416 135.475 19.5482L137.443 20.114L139.307 20.804L142.621 21.9563C144.527 22.7223 145.811 23.1984 145.88 23.0535C146.005 22.7706 146.253 22.1909 146.384 21.908C145.093 21.3767 143.533 20.6039 141.71 20.0036C139.887 19.4033 137.954 18.6236 135.924 18.0715L132.934 17.209C131.954 16.9192 130.96 16.7536 130.028 16.519L127.342 15.8635C126.52 15.6634 125.733 15.5944 125.049 15.4702C125.74 15.5875 126.43 15.6634 127.121 15.8083L129.089 16.2361L132.541 16.9813C134.564 17.5264 135.924 17.8369 135.993 17.6713L136.352 16.4707C142.728 18.2492 148.863 20.7981 154.622 24.0609C160.322 27.3682 165.77 31.0906 170.923 35.1978L171.524 34.5077C166.481 30.1544 160.986 26.3537 155.132 23.1708C149.236 20.0186 143.034 17.4754 136.621 15.5806L138.479 15.9877C139.01 16.1119 139.466 16.2499 139.86 16.3396C140.416 16.4943 140.984 16.6027 141.558 16.6639C142.304 16.726 142.387 16.5052 142.497 16.2085C150.685 19.1392 158.408 23.234 165.427 28.3666C172.361 33.453 178.908 39.046 185.015 45.0995L182.039 42.0151C181.535 41.5045 181.059 40.9732 180.534 40.4833L178.967 39.0135C177.917 38.0406 176.896 37.0401 175.818 36.0879L172.518 33.3278C173.74 34.1075 175.169 35.0735 176.661 36.2604C178.152 37.4472 179.761 38.8893 181.494 40.4005C183.227 41.9116 184.87 43.7332 186.589 45.6032L189.151 48.522L190.456 50.0193C190.884 50.523 191.285 51.0612 191.706 51.5787C195.075 55.7188 198.293 60.2315 201.193 64.5993C204.092 68.9671 206.606 73.2797 208.788 76.9368Z" fill="#24244C"/>
<path d="M233.444 138.272C230.889 134.132 228.41 129.82 226.056 125.341C224.868 123.106 223.729 120.815 222.604 118.49C222.051 117.323 221.492 116.15 220.953 114.957L220.746 114.508L220.449 113.818L219.759 112.259C219.31 111.217 218.868 110.189 218.419 109.119C218.875 107.843 219.338 106.566 219.8 105.283L220.442 103.53L220.864 102.419C221.43 100.936 222.01 99.459 222.624 97.9961C223.839 95.0566 225.138 92.1402 226.518 89.2467C229.289 83.3975 232.352 77.6908 235.695 72.1481C242.479 60.8148 250.591 50.3307 259.86 40.918L260.73 40.021L261.642 39.1653L263.465 37.461L265.287 35.7636C265.888 35.1908 266.551 34.6802 267.179 34.1351C268.463 33.0725 269.706 31.9754 271.018 30.9541C272.33 29.9329 273.676 28.9462 275.009 27.9526C280.406 24.0947 286.136 20.7255 292.132 17.8852C303.784 12.4803 316.377 9.39151 329.209 8.79082C342.93 8.00377 356.66 10.1807 369.463 15.1735L374.296 17.2435L378.977 19.5551C379.771 19.9277 380.517 20.3693 381.27 20.804L383.52 22.0736C385.06 22.9086 386.496 23.8815 387.953 24.8337C393.766 28.6423 399.216 32.9779 404.234 37.7853C405.532 38.9376 406.713 40.1935 407.928 41.4217C409.143 42.6499 410.365 43.8712 411.484 45.1823L414.936 49.0464L418.174 53.0416C422.437 58.3896 426.377 63.9863 429.974 69.8021C433.551 75.5666 436.822 81.516 439.772 87.6252C441.263 90.6682 442.644 93.7594 443.976 96.8714C444.635 98.4308 445.274 100.002 445.896 101.584L446.352 102.771L446.628 103.496L447.042 104.627L448.685 109.154C447.857 111.109 447.031 113.057 446.207 114.998C445.751 116.019 445.302 117.068 444.826 118.048C443.894 120.07 442.934 122.057 441.946 124.03C439.976 127.977 437.905 131.851 435.732 135.65C433.571 139.445 431.286 143.158 428.945 146.822C426.605 150.486 424.147 154.046 421.564 157.51C421.06 157.131 423.691 151.942 420.045 156.392C419.155 157.524 418.305 158.566 417.477 159.518L415.164 162.202C413.666 163.824 412.361 165.19 411.228 166.342C410.096 167.495 409.081 168.412 408.232 169.144C407.382 169.875 406.678 170.455 406.091 170.889C405.422 171.49 404.608 171.908 403.73 172.104C403.554 172.119 403.378 172.091 403.215 172.023C403.053 171.954 402.91 171.847 402.798 171.711C402.68 171.593 403.399 170.814 404.351 169.641C405.304 168.467 406.623 167.053 407.804 165.742C410.075 163.044 411.857 160.857 409.827 162.83L411.898 160.298C412.588 159.421 413.279 158.49 414.018 157.538C415.475 155.688 416.862 153.708 418.25 151.783C420.95 147.884 423.463 144.069 425.238 141.039C426.395 139.206 427.442 137.305 428.372 135.347C428.538 134.836 427.682 135.982 425.389 139.487C423.643 141.695 419.866 147.588 415.723 153.184C414.694 154.564 413.652 155.944 412.568 157.282C412.043 157.938 411.539 158.593 411.028 159.207L409.509 160.953C408.529 162.071 407.624 163.078 406.83 163.92C406.18 164.6 405.488 165.238 404.759 165.832C402.549 167.598 403.129 166.239 403.702 164.9C404.275 163.561 404.835 162.237 402.653 163.962C401.728 164.969 400.581 166.28 399.311 167.633C398.041 168.985 396.549 170.455 395.12 171.904L390.749 175.975L386.986 179.163C385.861 179.936 385.44 179.949 385.454 179.694C385.643 179.177 385.908 178.691 386.241 178.252C387.021 177.079 387.836 175.975 385.792 177.714C385.012 178.349 384.163 178.914 383.32 179.528L380.738 181.391C379.861 182.019 378.929 182.585 377.976 183.206C377.023 183.827 376.133 184.469 375.145 185.035C373.171 186.16 371.21 187.443 369.069 188.485C368.013 189.016 366.998 189.623 365.866 190.12L362.558 191.666L361.716 192.052L360.846 192.377L359.106 193.067L357.352 193.757C356.772 193.984 356.158 194.136 355.564 194.336C354.356 194.695 353.154 195.102 351.925 195.44L348.197 196.337C343.117 197.406 337.943 197.97 332.751 198.021C332.751 197.703 331.371 197.393 331.371 197.117C331.371 196.979 331.716 196.855 332.751 196.737C333.787 196.62 335.313 196.455 337.861 196.268C343.377 195.847 348.827 194.801 354.107 193.149L356.089 192.535C356.779 192.342 357.394 192.052 358.043 191.845L359.997 191.1C360.646 190.852 361.295 190.61 361.923 190.3L365.734 188.561L369.449 186.587C374.377 183.793 379.071 180.607 383.486 177.058C384.598 176.161 385.668 175.202 386.766 174.298C387.304 173.829 387.863 173.38 388.388 172.918L389.955 171.441C390.998 170.441 392.075 169.496 393.083 168.454L396.1 165.342C404.076 156.776 411.207 147.461 417.394 137.527C420.536 132.552 423.484 127.432 426.232 122.209C427.613 119.601 428.925 116.965 430.181 114.301C430.816 112.976 431.424 111.645 432.018 110.306L432.467 109.305L432.563 109.078V109.036L432.632 108.864L432.556 108.684L431.99 107.235C431.429 105.828 430.853 104.425 430.264 103.026C429.07 100.232 427.82 97.451 426.48 94.7116C423.834 89.2247 420.912 83.8748 417.725 78.6826C414.552 73.5022 411.095 68.5012 407.369 63.7023C405.456 61.3701 403.626 58.9481 401.59 56.74L400.098 55.0564L399.352 54.2077L398.572 53.4004L395.445 50.1849C391.222 46.0009 386.692 42.1398 381.891 38.634C377.089 35.2855 371.985 32.3911 366.646 29.9881L364.63 29.1118C363.939 28.8358 363.304 28.5115 362.614 28.2907L358.471 26.8347L354.328 25.641C353.976 25.5444 353.638 25.4271 353.279 25.3512L352.201 25.1166L350.13 24.6612C338.695 22.2895 326.89 22.3247 315.469 24.7647L313.35 25.2339L312.293 25.4685C311.941 25.5513 311.603 25.6686 311.244 25.7652L307.101 26.9865L303.014 28.4632C302.323 28.6909 301.674 29.0152 301.004 29.2981L299.009 30.1606C293.701 32.5886 288.63 35.5038 283.861 38.8686C279.069 42.3574 274.545 46.2001 270.328 50.3643L267.221 53.5867L266.447 54.394L265.709 55.2427L264.231 56.9333C262.215 59.1413 260.399 61.5702 258.507 63.9024C254.828 68.7036 251.415 73.7022 248.281 78.8758C245.141 84.0647 242.263 89.4075 239.658 94.8841C238.332 97.6442 237.103 100.404 235.922 103.164C235.333 104.544 234.767 105.943 234.224 107.36L233.817 108.415L233.713 108.678C233.713 108.767 233.713 108.74 233.713 108.74V108.705L233.768 108.816L234.196 109.782C234.769 111.065 235.37 112.348 235.985 113.632C237.193 116.199 238.491 118.738 239.803 121.263C242.468 126.324 245.31 131.255 248.33 136.057C251.354 140.888 254.544 145.566 257.941 150.092L260.523 153.446C261.386 154.557 262.305 155.619 263.188 156.71C264.942 158.918 266.841 160.967 268.712 163.058C272.435 167.142 276.413 170.986 280.622 174.567L282.19 175.906C282.721 176.341 283.274 176.748 283.812 177.169C284.903 177.99 285.966 178.852 287.071 179.653L290.434 181.971L291.276 182.544L292.146 183.068L293.872 184.124C298.459 186.928 303.317 189.262 308.372 191.093C313.355 192.89 318.513 194.162 323.762 194.888C326.261 195.164 328.215 195.468 329.707 195.523C331.198 195.578 332.206 195.751 332.8 195.861C333.394 195.972 333.649 196.047 333.49 196.151C333.312 196.232 333.124 196.287 332.931 196.317C332.662 196.372 332.351 196.413 331.944 196.455C331.143 196.544 330.059 196.634 328.754 196.717C328.064 196.766 327.373 196.778 326.682 196.751L324.314 196.71L323.037 196.675L321.732 196.551L318.97 196.282C318.024 196.22 317.092 195.999 316.132 195.854L313.246 195.351C314.968 195.637 316.658 196.088 318.293 196.696C319.964 197.223 321.69 197.554 323.437 197.683C323.437 197.798 323.258 197.908 322.899 198.014C322.398 198.109 321.89 198.162 321.38 198.173C319.361 198.268 317.337 198.164 315.338 197.862L313.205 197.565C312.452 197.469 311.679 197.248 310.857 197.076L308.261 196.468C307.35 196.261 306.438 195.916 305.465 195.62C304.491 195.323 303.483 194.999 302.447 194.612L299.258 193.308C298.712 193.073 298.146 192.86 297.587 192.618L295.895 191.783C294.763 191.197 293.554 190.652 292.374 189.961C297.112 192.668 302.079 194.952 307.219 196.786C309.759 197.772 309.704 197.973 308.965 198.042C308.227 198.111 306.804 197.993 306.708 198.262L302.889 196.827L301.992 196.489L301.156 196.116L299.61 195.426C298.657 195.012 297.856 194.681 297.283 194.474C296.71 194.267 296.385 194.129 296.344 194.205C296.206 194.488 295.93 195.047 295.785 195.33C297.034 195.978 298.671 196.655 300.431 197.469C301.308 197.897 302.268 198.235 303.235 198.607L306.19 199.725C307.191 200.077 308.213 200.36 309.207 200.671C310.201 200.981 311.161 201.298 312.107 201.533C313.999 201.975 315.718 202.402 317.099 202.699C311.575 201.561 306.197 199.725 306.093 200.022L305.679 201.202C299.284 199.072 293.182 196.152 287.513 192.508C281.908 188.903 276.55 184.929 271.474 180.612L270.852 181.302C275.807 185.857 281.203 189.909 286.961 193.398C292.755 196.913 298.901 199.813 305.299 202.051C303.686 201.47 302.028 201.024 300.342 200.719C299.589 200.615 299.499 200.815 299.382 201.112C291.27 197.705 283.672 193.188 276.804 187.691C270.041 182.273 263.61 176.452 257.547 170.262C261.399 174.567 265.496 178.647 269.817 182.482C268.406 181.513 267.046 180.472 265.743 179.363C264.217 178.148 262.677 176.644 261.02 175.036C259.363 173.429 257.692 171.586 255.973 169.71C254.254 167.833 252.597 165.735 250.871 163.651C247.508 159.428 244.242 154.922 241.315 150.541C238.387 146.159 235.729 141.923 233.444 138.272Z" fill="#24244C"/>
<path d="M457.378 139.701C454.644 135.354 452.02 130.822 449.507 126.107C448.243 123.754 447.042 121.339 445.847 118.89C445.26 117.662 444.674 116.426 444.107 115.164L443.624 114.094L442.934 112.445L441.553 109.126L442.899 105.379L443.541 103.613L443.956 102.53C444.508 101.087 445.074 99.6452 445.668 98.2169C446.849 95.3465 448.119 92.5036 449.452 89.6745C452.124 84.0302 455.086 78.4479 458.345 72.9968C461.618 67.5177 465.186 62.2198 469.033 57.1264C469.972 55.8292 470.987 54.5803 471.995 53.3314C473.003 52.0824 473.99 50.8128 475.04 49.5915C477.18 47.1764 479.258 44.72 481.558 42.436C483.857 40.152 486.17 37.9095 488.524 35.7014C489.739 34.6388 490.989 33.6314 492.218 32.5688C492.846 32.0582 493.44 31.513 494.089 31.03L496.023 29.5741C498.557 27.5731 501.277 25.8342 503.949 24.054C506.711 22.4255 509.473 20.735 512.331 19.3481C517.963 16.4636 523.871 14.152 529.965 12.4479C530.718 12.234 531.45 11.9718 532.209 11.8062L534.481 11.2818C535.993 10.9506 537.484 10.5366 539.003 10.3226L543.519 9.56363L548.021 9.07372C566.079 7.33211 584.269 10.5806 600.605 18.4648C617.358 26.5744 631.54 39.1576 641.581 54.8222C651.622 70.4868 657.131 88.6221 657.499 107.222C657.686 116.382 656.638 125.527 654.385 134.408L653.466 137.693L652.997 139.328L652.458 140.943L651.361 144.151C650.946 145.205 650.534 146.256 650.125 147.305C649.911 147.829 649.717 148.353 649.489 148.871L648.799 150.41C648.329 151.438 647.881 152.48 647.418 153.48C646.382 155.468 645.423 157.496 644.27 159.408C643.993 159.249 644.401 157.772 644.449 156.965C644.497 156.158 644.242 156.026 642.633 158.476C641.024 160.926 639.581 163.023 638.276 164.831L636.316 167.253C635.715 167.998 635.142 168.674 634.576 169.268C633.45 170.462 632.504 171.462 631.69 172.228C630.875 172.994 630.143 173.574 629.563 174.022C628.904 174.638 628.094 175.068 627.215 175.271C627.041 175.289 626.864 175.264 626.702 175.198C626.539 175.131 626.396 175.026 626.283 174.892C626.076 174.691 628.942 171.593 631.117 168.826C631.655 168.136 632.173 167.446 632.615 166.915C633.057 166.384 633.367 165.845 633.588 165.535C634.016 164.845 633.947 164.845 633.015 165.873C635.739 162.146 638.187 158.225 640.341 154.143C642.312 150.358 644.013 146.438 645.43 142.412C646.534 139.087 647.183 136.734 647.183 136.202C647.183 135.671 646.762 136.996 645.236 140.874C644.946 141.509 644.546 142.378 644.083 143.427C643.621 144.476 643.137 145.731 642.481 147.049C641.825 148.367 641.232 149.851 640.41 151.314C639.588 152.776 638.87 154.336 637.966 155.806L636.668 158.048L635.287 160.167C634.817 160.857 634.389 161.547 633.906 162.188L632.525 164.024C632.076 164.603 631.669 165.169 631.241 165.68L630.026 167.06C629.42 167.763 628.769 168.427 628.078 169.047C625.917 170.827 626.47 169.475 626.988 168.15C627.505 166.825 627.933 165.466 625.91 167.246C625.02 168.247 623.97 169.544 622.714 170.876C621.457 172.207 620.083 173.67 618.612 175.016C617.142 176.361 615.65 177.707 614.269 178.914C612.889 180.122 611.508 181.088 610.486 181.923C608.138 183.22 608.96 182.068 609.795 180.977C610.631 179.887 611.425 178.804 609.367 180.419C605.892 182.795 602.294 184.988 598.589 186.988C594.447 189.178 590.158 191.08 585.754 192.68C576.142 196.116 566.017 197.897 555.809 197.945C555.809 197.628 554.428 197.317 554.428 197.041C554.428 196.903 554.766 196.779 555.809 196.662C556.851 196.544 558.37 196.42 560.925 196.213C577.987 195.167 594.363 189.125 608.012 178.84C621.661 168.555 631.977 154.482 637.676 138.376C639.075 134.367 640.192 130.265 641.018 126.1C641.804 121.923 642.309 117.698 642.53 113.452C642.695 109.211 642.582 104.963 642.191 100.735C641.753 96.5115 641.015 92.324 639.982 88.2048C635.759 71.625 626.724 56.6637 614.013 45.2034C601.302 33.7431 585.484 26.2959 568.548 23.7987C564.351 23.2194 560.121 22.9174 555.885 22.8947L552.702 23.0051C551.645 23.0465 550.575 23.0051 549.526 23.1707C547.454 23.3847 545.3 23.502 543.229 23.8608C534.868 25.1036 526.758 27.6656 519.201 31.4509C511.561 35.3111 504.464 40.1624 498.094 45.8792C491.64 51.7344 485.773 58.2052 480.577 65.1996L478.609 67.8493L476.724 70.5473C476.089 71.4673 475.475 72.3873 474.881 73.3073C474.28 74.225 473.659 75.1359 473.079 76.0674C470.722 79.7935 468.503 83.607 466.423 87.5079C464.351 91.3996 462.391 95.381 460.582 99.4037C459.691 101.425 458.821 103.447 457.999 105.49C457.585 106.511 457.185 107.532 456.798 108.553L456.722 108.74V108.781V108.747L456.777 108.857L457.205 109.823C457.785 111.106 458.379 112.397 458.994 113.68C460.209 116.247 461.507 118.786 462.826 121.319C465.484 126.356 468.349 131.31 471.36 136.126C474.37 140.943 477.574 145.642 480.985 150.168L483.567 153.529C484.437 154.64 485.348 155.702 486.239 156.792C487.993 159 489.898 161.05 491.762 163.147C495.514 167.239 499.522 171.087 503.763 174.671L505.33 176.016L506.959 177.272C508.05 178.093 509.114 178.963 510.225 179.756L513.588 182.075C514.14 182.475 514.72 182.827 515.3 183.172L517.033 184.227L518.766 185.29L520.547 186.235L522.329 187.181L523.219 187.657C523.516 187.809 523.827 187.94 524.131 188.078L527.783 189.754L531.512 191.183C536.502 192.95 541.662 194.194 546.909 194.895C549.381 195.171 551.307 195.461 552.778 195.516C554.248 195.571 555.243 195.744 555.83 195.854C556.416 195.965 556.665 196.041 556.52 196.144C556.344 196.224 556.158 196.28 555.968 196.31C555.646 196.372 555.321 196.418 554.994 196.448C554.2 196.537 553.13 196.627 551.846 196.71C551.528 196.71 551.155 196.765 550.844 196.765H549.774L547.434 196.724H546.177C545.756 196.724 545.328 196.648 544.886 196.606L542.179 196.351C541.254 196.289 540.322 196.096 539.383 195.944L536.531 195.454C538.231 195.733 539.9 196.172 541.516 196.765C542.138 196.944 542.759 197.131 543.588 197.303C543.981 197.386 544.416 197.476 544.92 197.552C545.484 197.654 546.054 197.714 546.626 197.731C546.626 197.966 545.935 198.193 544.596 198.235C543.905 198.269 543.098 198.276 542.096 198.235C540.94 198.209 539.787 198.107 538.644 197.931C533.39 197.289 525.463 195.357 515.935 190.244C520.641 192.862 525.556 195.087 530.628 196.896C535.675 198.766 530.345 197.793 530.117 198.38C524.939 196.565 520.023 194.15 519.871 194.447L519.318 195.571L523.917 197.641C525.677 198.393 527.659 199.083 529.606 199.836L532.589 200.753L534.039 201.195L534.729 201.416L535.42 201.581C537.291 202.016 538.983 202.451 540.35 202.72C534.874 201.63 529.585 199.808 529.475 200.132L529.068 201.319C522.779 199.232 516.767 196.389 511.164 192.853C510.418 192.383 509.666 191.921 508.913 191.473C508.161 191.024 507.47 190.472 506.752 189.982C505.371 188.975 503.88 188.05 502.609 186.994L498.75 184.048C497.548 183.045 496.398 182.102 495.298 181.219L494.683 181.909L498.052 184.883C499.275 185.877 500.586 186.87 501.919 187.905C503.252 188.94 504.681 189.899 506.145 190.9C506.876 191.39 507.595 191.907 508.354 192.377L510.646 193.757C516.396 197.175 522.475 200.007 528.791 202.209C523.309 200.47 523.171 200.753 522.936 201.326C514.917 198.003 507.394 193.591 500.58 188.216C493.839 182.902 487.42 177.192 481.357 171.117L482.78 172.704L484.271 174.229L487.261 177.279C488.283 178.279 489.332 179.239 490.375 180.218C491.417 181.198 492.446 182.178 493.565 183.082C492.146 182.164 490.791 181.149 489.512 180.046C488.77 179.434 488 178.781 487.199 178.086C486.425 177.396 485.638 176.603 484.817 175.809C483.995 175.016 483.166 174.181 482.31 173.325C481.454 172.47 480.653 171.524 479.804 170.565C478.955 169.606 478.078 168.674 477.235 167.674L474.729 164.61C473.01 162.54 471.415 160.387 469.785 158.241C468.156 156.095 466.651 153.887 465.208 151.721C462.266 147.456 459.622 143.289 457.378 139.701Z" fill="#24244C"/>
<path d="M274.311 34.349C271.681 36.3225 269.243 38.5788 266.716 40.7662C264.348 43.1122 261.883 45.3755 259.653 47.9216L257.941 49.7778C257.658 50.0952 257.361 50.3988 257.085 50.7162L256.27 51.696L253.004 55.6153C251.934 56.947 250.933 58.3754 249.883 59.7002L248.323 61.7703L246.824 63.8817C242.823 69.6078 239.157 75.5611 235.846 81.7117C235.432 82.4914 235.004 83.2643 234.603 84.0509L233.989 85.2308L233.685 85.8173L233.25 86.6867L232.221 88.7568C231.876 89.4468 231.531 90.1023 231.186 90.882C230.495 92.3932 229.805 93.8629 229.114 95.4224C227.733 98.5136 226.352 101.722 225.02 104.938C223.687 108.153 222.32 111.307 220.967 114.501L215.795 102.371C214.049 98.2307 212.288 94.2769 210.451 90.4335L209.112 87.7425L208.421 86.4038L208.152 85.8794L207.952 85.4999C207.42 84.4856 206.896 83.4299 206.336 82.4569C205.255 80.4375 204.127 78.4388 202.953 76.4607C200.626 72.5 198.12 68.6152 195.517 64.8477L193.508 62.0325L191.436 59.2724L189.33 56.5123C188.64 55.6015 187.86 54.7459 187.121 53.8558C181.251 46.7638 174.63 40.3276 167.374 34.6595C160.146 29.0099 152.184 24.3674 143.705 20.8592C135.192 17.4386 126.217 15.3015 117.075 14.5179C107.874 13.7432 98.6092 14.315 89.5738 16.2154C85.0598 17.1877 80.6187 18.4719 76.2826 20.0588C67.6035 23.2782 59.4432 27.751 52.0616 33.3347C48.385 36.13 44.9039 39.1732 41.6426 42.4429C35.1491 49.0015 29.6355 56.4614 25.272 64.5924C23.118 68.6445 21.247 72.8406 19.6724 77.1507C18.1336 81.4729 16.8902 85.8946 15.9509 90.3852C12.369 108.043 13.8883 126.355 20.3314 143.182C26.7746 160.009 37.8755 174.657 52.3377 185.414L54.996 187.305C55.4448 187.615 55.8798 187.933 56.3286 188.236L57.7095 189.106C58.6278 189.685 59.5254 190.293 60.4713 190.838L63.2883 192.446C67.0486 194.519 70.9474 196.331 74.957 197.869C76.9248 198.69 78.9754 199.249 80.9846 199.98C81.9996 200.284 83.056 200.553 84.0433 200.843L85.5761 201.271L87.1227 201.63L90.2091 202.32L93.3161 202.858L94.8696 203.134L96.43 203.32L99.544 203.707L104.225 204.038C105.786 204.093 107.353 204.1 108.92 204.141C118.253 204.066 127.506 202.417 136.29 199.263C142.2 197.064 147.88 194.291 153.247 190.983C154.58 190.12 155.954 189.327 157.266 188.416L161.174 185.656C162.472 184.724 163.701 183.675 164.971 182.689C165.593 182.185 166.235 181.702 166.849 181.184L168.665 179.584L170.488 177.983C171.096 177.451 171.703 176.92 172.276 176.341L175.77 172.953C176.937 171.821 178.014 170.586 179.146 169.413L180.824 167.633C181.383 167.039 181.894 166.397 182.433 165.783L185.643 162.057L188.702 158.2L190.228 156.268L191.692 154.281C192.679 152.97 193.618 151.597 194.578 150.251C198.362 144.8 201.913 139.176 205.232 133.38C206.053 131.924 206.882 130.475 207.676 129.012L208.145 128.157L208.725 127.06L209.878 124.858L211.024 122.65L212.143 120.387L213.268 118.11L214.373 115.764L216.589 111.044L220.981 101.653C223.625 107.242 226.394 113.149 229.114 118.828L231.186 122.968L233.326 127.025L233.872 128.039L234.327 128.867L234.886 129.875L236.026 131.883C239.073 137.219 242.332 142.424 245.803 147.498C247.542 150.023 249.317 152.535 251.16 154.964C252.051 156.206 253.045 157.358 253.977 158.566C254.91 159.773 255.856 160.967 256.85 162.119L259.839 165.569C260.343 166.135 260.82 166.729 261.345 167.281L262.912 168.923C263.955 170.02 264.983 171.138 266.047 172.214L269.319 175.347C269.872 175.864 270.396 176.41 270.963 176.899L272.668 178.383C273.814 179.349 274.919 180.384 276.12 181.309L279.655 184.069L280.546 184.759L281.464 185.4L283.294 186.677L285.131 187.96C285.731 188.402 286.387 188.754 287.016 189.154C288.279 189.934 289.536 190.727 290.806 191.486L294.714 193.591L295.688 194.122L296.689 194.585L298.698 195.509C304.001 197.985 309.557 199.88 315.269 201.16C320.953 202.41 326.752 203.063 332.572 203.106C338.38 203.048 344.166 202.375 349.833 201.098C355.547 199.803 361.104 197.889 366.404 195.392L368.399 194.46C368.731 194.302 369.09 194.157 369.4 193.991L370.367 193.46L374.261 191.342L378.045 188.995C379.322 188.243 380.524 187.36 381.746 186.504L383.569 185.221L384.487 184.572L385.364 183.882L388.892 181.122C390.059 180.184 391.164 179.156 392.303 178.183L394.001 176.699C394.567 176.203 395.092 175.657 395.645 175.14L398.903 172C399.953 170.917 400.975 169.806 402.031 168.709L403.592 167.06C404.109 166.508 404.593 165.914 405.09 165.349L408.073 161.899C409.06 160.739 409.985 159.518 410.938 158.338C411.891 157.158 412.864 155.971 413.762 154.736C415.612 152.307 417.373 149.816 419.106 147.305C422.558 142.254 425.79 137.051 428.772 131.71L429.891 129.709L430.443 128.702L430.954 127.77L431.5 126.728L433.688 122.533L435.808 118.22C438.57 112.3 441.35 106.382 444.149 100.466L448.699 110.161L450.998 115.046L452.144 117.482L453.304 119.842L454.464 122.195L455.659 124.486L456.853 126.77L457.461 127.908L457.951 128.805C458.745 130.268 459.574 131.717 460.402 133.173C463.737 138.949 467.307 144.565 471.125 149.975C478.844 160.732 487.364 170.8 497.169 179.149C506.665 187.537 517.638 194.089 529.53 198.469C535.341 200.492 541.364 201.849 547.482 202.513C549.008 202.665 550.527 202.865 552.06 202.872L554.352 202.948C555.111 202.948 555.871 203.017 556.658 202.948C558.205 202.885 559.758 202.906 561.305 202.789C562.851 202.672 564.398 202.589 565.931 202.409C565.931 202.485 565.703 202.603 565.316 202.734C564.93 202.865 564.377 202.982 563.763 203.12C562.548 203.382 561.07 203.72 560.083 203.921C559.095 204.121 558.591 204.3 559.351 204.424C560.11 204.548 562.113 204.569 566.138 204.272C573.205 203.591 580.177 202.15 586.934 199.974C592.029 198.32 596.99 196.279 601.772 193.867C607.5 190.884 612.989 187.466 618.191 183.641C621.505 181.226 623.156 179.963 624.129 179.501C625.103 179.039 625.317 179.225 625.51 179.446C625.126 180.039 624.661 180.575 624.129 181.04L622.431 182.73L620.145 184.766C616.258 188.137 612.101 191.186 607.717 193.881C606.619 194.571 605.487 195.178 604.444 195.799L602.987 196.648L601.517 197.407L598.955 198.718L596.98 199.642C594.854 200.65 594.909 200.726 598.762 199.139C592.709 202.047 586.375 204.329 579.857 205.949C572.957 207.669 565.893 208.649 558.785 208.875C551.951 209.099 545.114 208.534 538.409 207.191C532.62 205.928 526.954 204.152 521.479 201.885C515.526 199.276 509.783 196.213 504.301 192.722C503.963 192.521 503.921 192.528 504.204 192.77C504.818 193.269 505.461 193.73 506.131 194.15L510.37 196.91C511.295 197.462 512.352 198.035 513.512 198.69C514.672 199.346 515.921 200.07 517.371 200.76L520.727 202.437C521.362 202.775 522.073 203.044 522.798 203.348L525.132 204.3C526.748 204.99 528.584 205.563 530.497 206.198C532.409 206.832 534.515 207.357 536.711 207.909L538.368 208.323L540.087 208.626L543.615 209.254C544.81 209.454 546.046 209.537 547.282 209.682C548.518 209.827 549.781 210 551.058 210.006C556.297 210.28 561.549 210.141 566.766 209.592C576.82 208.502 586.66 205.945 595.972 202.002C602.331 199.249 608.448 195.972 614.262 192.204C615.167 191.631 615.913 191.176 616.513 190.824C617.114 190.472 617.542 190.134 617.894 189.989C618.543 189.623 618.723 189.637 618.585 189.892C618.226 190.392 617.819 190.854 617.37 191.272C616.748 191.9 615.92 192.604 615.112 193.343C613.503 194.819 611.77 196.151 611.439 196.655C611.273 196.903 611.439 196.931 612.129 196.62C613.442 196.016 614.702 195.305 615.899 194.495C620.254 191.448 624.357 188.056 628.168 184.352C637.419 175.435 644.957 164.899 650.408 153.266C651.015 151.886 651.671 150.562 652.203 149.23L653.729 145.359C654.184 144.096 654.585 142.875 654.978 141.716C655.372 140.556 655.71 139.432 656.007 138.376C656.698 136.306 657.153 134.995 657.388 134.236C657.623 133.477 657.782 133.415 657.816 133.711C657.831 134.344 657.789 134.977 657.692 135.602C657.547 136.492 657.347 137.589 657.133 138.679C656.76 140.888 656.138 143.027 656.097 143.599C656.097 143.882 656.166 143.765 656.442 143.047C656.984 141.682 657.445 140.285 657.823 138.866C662.029 124.972 663.29 110.355 661.524 95.9468C660.551 88.0868 658.698 80.3608 656 72.914C653.151 65.1511 649.417 57.742 644.87 50.8335C644.318 49.9434 643.703 49.0878 643.089 48.2252L641.245 45.6446L639.278 43.1398C638.587 42.3049 637.966 41.4562 637.255 40.6627L635.149 38.2407C634.458 37.4196 633.685 36.6744 632.953 35.8877C632.221 35.1011 631.482 34.3145 630.695 33.5762L628.382 31.3336C627.616 30.5746 626.787 29.8708 625.966 29.1601L623.494 27.0348L620.918 25.02L619.634 24.0126L618.295 23.0534L615.616 21.1559C614.704 20.5418 613.772 19.9622 612.854 19.3688C611.031 18.1405 609.084 17.0986 607.178 15.9877C599.354 11.7226 591.033 8.43643 582.405 6.20325C573.708 4.01157 564.777 2.88547 555.809 2.84977C555.809 2.53926 551.528 2.22185 551.521 1.94585C551.521 1.81474 552.577 1.68364 555.781 1.57324C561.846 1.43299 567.911 1.85339 573.899 2.82907L577.599 3.51908L581.266 4.3609C581.873 4.50581 582.488 4.63001 583.095 4.79561L584.904 5.31313C586.106 5.66503 587.328 6.00314 588.516 6.36885C593.294 7.90023 597.967 9.74426 602.504 11.889C607.02 14.078 611.388 16.5581 615.581 19.3136C616.645 20.0036 617.653 20.7488 618.668 21.4595C619.683 22.1702 620.739 22.9085 621.699 23.7021L624.654 26.0274L627.505 28.4908C638.883 38.5277 648.018 50.8466 654.317 64.6456C660.615 78.4446 663.935 93.4144 664.061 108.581C664.186 123.747 661.115 138.77 655.046 152.671C648.978 166.572 640.048 179.041 628.838 189.265C625.096 192.662 621.133 195.808 616.976 198.683C615.954 199.428 614.863 200.063 613.807 200.753L612.212 201.781C611.68 202.12 611.121 202.416 610.576 202.741L607.289 204.631L603.913 206.308C599.384 208.577 594.698 210.517 589.89 212.111L588.087 212.718L586.265 213.25C585.043 213.588 583.827 213.94 582.605 214.278C580.133 214.837 577.682 215.478 575.176 215.878C565.16 217.746 554.922 218.118 544.796 216.983C534.623 215.76 524.713 212.911 515.445 208.544C506.3 204.251 497.733 198.824 489.947 192.39C482.274 186.065 475.222 179.022 468.888 171.359C465.774 167.529 462.674 163.693 459.85 159.69C457.026 155.688 454.257 151.61 451.668 147.456C450.37 145.386 449.113 143.282 447.877 141.164C447.256 140.115 446.662 139.045 446.054 137.983L444.722 135.63C444.535 135.292 444.363 134.94 444.204 134.629L443.88 135.319L443.714 135.65L443.023 136.954L441.822 139.093C438.6 144.802 435.148 150.371 431.465 155.799C429.608 158.504 427.702 161.188 425.707 163.81C424.74 165.135 423.677 166.404 422.662 167.702C421.647 168.999 420.632 170.296 419.555 171.552L416.31 175.306C415.757 175.927 415.24 176.568 414.666 177.169L412.961 178.983C411.815 180.184 410.689 181.405 409.509 182.592L405.905 186.042C405.297 186.615 404.724 187.208 404.089 187.76L402.204 189.409C400.933 190.5 399.704 191.638 398.393 192.687L394.436 195.806L393.442 196.586L392.406 197.317L390.335 198.773C388.954 199.746 387.573 200.733 386.13 201.602C384.687 202.471 383.258 203.403 381.808 204.279L377.32 206.722L376.201 207.329C375.822 207.522 375.428 207.695 375.041 207.881L372.721 208.965C366.498 211.89 359.977 214.136 353.271 215.665C339.751 218.811 325.692 218.848 312.155 215.775L307.129 214.533L302.206 212.98C301.798 212.849 301.384 212.725 300.977 212.587L299.775 212.118L297.372 211.186L294.977 210.248L292.65 209.172L290.316 208.095C289.543 207.736 288.762 207.405 288.024 206.957L283.522 204.521C282.051 203.679 280.629 202.754 279.179 201.864C278.489 201.416 277.722 200.988 277.025 200.484L274.953 199.028L272.882 197.572C272.192 197.089 271.501 196.606 270.811 196.075L266.834 192.956C266.143 192.446 265.529 191.894 264.9 191.342L263.002 189.748C261.738 188.637 260.447 187.56 259.266 186.373L255.648 182.923C254.461 181.75 253.342 180.515 252.196 179.315C249.855 176.934 247.75 174.367 245.561 171.862C244.463 170.613 243.49 169.282 242.433 167.998C241.377 166.715 240.362 165.418 239.368 164.079C237.379 161.436 235.473 158.759 233.616 156.04C229.906 150.603 226.426 145.035 223.176 139.335L221.105 135.678L220.96 135.409L220.829 135.706L220.76 135.844L219.828 137.534L218.592 139.721C215.264 145.545 211.729 151.245 207.917 156.785C206.026 159.546 204.044 162.306 202.014 165.01L198.845 168.999L197.257 170.986C196.725 171.676 196.152 172.276 195.6 172.918L192.272 176.768C191.133 178.031 189.938 179.252 188.771 180.494L187.017 182.351C186.431 182.965 185.795 183.544 185.181 184.145L181.501 187.678C176.406 192.328 170.988 196.612 165.289 200.498C159.477 204.374 153.338 207.737 146.944 210.552C140.434 213.317 133.654 215.398 126.713 216.762L124.096 217.217C123.22 217.355 122.357 217.555 121.466 217.624L116.17 218.183C112.635 218.356 109.065 218.514 105.585 218.356C84.4134 217.666 63.8998 210.834 46.5466 198.693C29.1934 186.552 15.7507 169.626 7.85819 149.98C-0.0343074 130.335 -2.03547 108.818 2.09878 88.0557C6.23303 67.2929 16.324 48.1813 31.1409 33.0518C40.9487 22.9924 52.5981 14.9085 65.4563 9.23932C78.3143 3.57936 92.1486 0.465093 106.193 0.0690016L108.817 0C109.694 0 110.571 0 111.447 0.0483011C113.194 0.117303 114.948 0.138003 116.695 0.248406L121.942 0.752118C122.377 0.800419 122.812 0.828019 123.247 0.890121L124.552 1.09713L127.148 1.51804C134.086 2.6683 140.885 4.53918 147.434 7.10027C160.426 12.2182 172.393 19.6271 182.764 28.9738L184.711 30.6712L186.562 32.4239C187.791 33.6245 189.034 34.8113 190.249 36.0258L193.742 39.7863C194.315 40.4212 194.923 41.0284 195.475 41.677L197.119 43.6366C198.217 44.9477 199.328 46.238 200.398 47.5628L203.492 51.6132L205.038 53.635L206.516 55.705C207.503 57.085 208.442 58.4651 209.395 59.8934C211.273 62.7156 213.061 65.5791 214.794 68.4772C216.527 71.3753 218.15 74.3286 219.724 77.3025L221.036 79.8142C221.071 79.8832 221.036 79.8487 221.036 79.8487L220.981 79.7314L220.926 79.8556L222.113 77.5716C225.206 71.7065 228.569 65.9725 232.249 60.4109C234.099 57.6509 235.991 54.8908 238.021 52.2342L241.038 48.2942L241.805 47.3006L242.613 46.3346L244.235 44.4094C248.553 39.2213 253.229 34.3424 258.231 29.8087L262.07 26.469C262.691 25.8963 263.375 25.3857 264.044 24.8613L266.06 23.295L268.077 21.7286C268.767 21.2111 269.457 20.7488 270.148 20.2589C271.529 19.2929 272.951 18.313 274.373 17.3677C280.168 13.6921 286.258 10.5047 292.581 7.83858C305.376 2.60982 319.079 -0.0422736 332.903 0.0345008C339.785 0.106538 346.646 0.799367 353.403 2.10455C360.14 3.50763 366.734 5.52636 373.101 8.13529C379.398 10.8143 385.454 14.0254 391.205 17.7334C393.967 19.6724 396.846 21.5354 399.49 23.6814L401.493 25.2408C401.824 25.503 402.183 25.7583 402.487 26.0274L403.44 26.8623L407.251 30.1882C412.198 34.7205 416.831 39.5849 421.115 44.7476C423.318 47.2661 425.258 49.9434 427.329 52.5861C429.401 55.2289 431.154 57.9545 432.984 60.7145C436.612 66.2313 439.96 71.9265 443.016 77.7786L444.018 79.6969L444.163 79.9867V80.0281V80.1178V80.0695L444.245 79.9177L445.392 77.7234C445.999 76.5504 446.648 75.3912 447.277 74.2319C448.568 71.9204 449.873 69.6157 451.254 67.3318C456.739 58.2022 463.031 49.5817 470.055 41.5735C477.197 33.4506 485.284 26.2094 494.144 20.0036L497.493 17.6989L500.98 15.5806C503.272 14.1246 505.716 12.9033 508.133 11.6406C508.741 11.3301 509.328 10.992 509.956 10.716L511.827 9.88103L515.562 8.27329C516.833 7.75578 518.124 7.30727 519.401 6.82426L521.321 6.13424L522.287 5.78234L523.268 5.48563L526.492 4.53341C527.542 4.2436 528.564 3.88479 529.551 3.69159L535.219 2.42886C537.008 2.12525 538.672 1.88374 540.253 1.64224C541.033 1.53184 541.779 1.38003 542.511 1.32483L544.623 1.14543L548.345 0.84182C549.484 0.752118 550.513 0.786619 551.445 0.759018C553.302 0.759018 554.752 0.759018 555.823 0.759018C557.825 0.84182 558.426 0.938422 557.852 1.04882C557.569 1.09713 556.996 1.15233 556.154 1.20753L552.702 1.47663L550.361 1.58704L549.07 1.67674C548.628 1.71814 548.172 1.78714 547.689 1.84234L544.72 2.21495L543.125 2.42196C542.58 2.48406 542.027 2.55996 541.461 2.67726C536.293 3.53562 531.195 4.77412 526.209 6.38265C520.313 8.26673 514.598 10.6777 509.134 13.5864L504.826 15.9532C503.41 16.8088 502.029 17.7127 500.649 18.6235C499.958 19.0789 499.226 19.493 498.577 20.0036L496.506 21.3836L494.434 22.8533C493.744 23.3364 493.054 23.8194 492.432 24.3576C493.281 23.6676 494.158 23.0672 494.959 22.4876L497.238 20.8937C497.928 20.4038 498.619 19.907 499.309 19.5137L501.215 18.3889L504.543 16.4707C505.592 15.9118 506.614 15.4495 507.622 14.9527L510.708 13.4622L514.25 11.958C515.542 11.4129 516.929 10.7436 518.586 10.1639L521.196 9.17032C522.122 8.82531 523.088 8.4044 524.165 8.09389C524.207 8.21809 523.696 8.4458 522.695 8.97021C521.694 9.49462 520.168 10.1984 518.138 11.1093C517.109 11.5302 516.025 12.165 514.782 12.7791L512.807 13.7934C512.117 14.1453 511.426 14.4834 510.695 14.9113L506.034 17.6023C504.391 18.6097 502.678 19.7759 500.828 20.9627C499.889 21.5354 499.012 22.253 498.066 22.9292L495.166 25.0614C494.662 25.4133 494.179 25.8066 493.689 26.2137L492.204 27.435L489.118 29.9743C484.617 33.9259 480.36 38.1474 476.372 42.6154C467.645 52.2756 458.807 64.6959 450.826 79.9936C458.862 64.7511 468.908 50.4747 481.205 38.2407C482.787 36.771 483.967 35.6462 484.872 34.8872C485.776 34.1282 486.398 33.6935 486.736 33.4658C487.426 33.0173 487.102 33.4658 486.377 34.28L485.079 35.7014L483.698 37.3437C482.835 38.3856 482.179 39.2481 482.317 39.3585C476.744 44.8945 471.617 50.8609 466.982 57.2024C465.063 59.7761 463.592 62.0325 462.577 63.5781C462.004 64.3776 461.514 65.2329 461.113 66.1312L462.163 66.8212C463.323 65.0409 464.648 63.0606 466.14 60.956C467.631 58.8515 469.343 56.6503 471.104 54.325C471.967 53.152 472.941 52.0203 473.914 50.8749L476.883 47.3489L480.087 43.8988L481.703 42.16L483.387 40.4764C484.526 39.3792 485.652 38.2545 486.839 37.1781L490.382 34.0799C490.975 33.5831 491.528 33.038 492.142 32.5757L493.944 31.1956C495.146 30.2779 496.285 29.3257 497.472 28.4839L500.973 26.0688C501.546 25.6824 502.085 25.2753 502.658 24.9303L504.342 23.9091L507.505 21.9908C508.527 21.3974 509.535 20.9075 510.467 20.4107C509.535 20.9006 508.589 21.3767 507.67 21.8873L504.991 23.5158L502.347 25.1166L499.868 26.8347L497.472 28.4977C496.685 29.029 495.974 29.6431 495.256 30.1951C493.834 31.3267 492.453 32.348 491.258 33.3899L488.02 36.2604L486.681 37.4679L485.604 38.5581C484.874 39.2065 484.21 39.9253 483.622 40.7041L484.506 41.5942C476.769 49.427 469.845 58.0224 463.841 67.249C460.568 72.2171 457.481 77.4957 454.602 82.9331L454.064 83.9543L453.794 84.4649L453.449 85.1549L452.068 87.915L450.687 90.7785L449.348 93.7042C447.573 97.6442 445.84 101.646 444.19 105.517C441.85 99.9972 439.44 94.2838 436.968 89.0742C436.347 87.7356 435.732 86.528 435.118 85.2929L434.662 84.389L434.303 83.699C434.064 83.239 433.833 82.7789 433.612 82.3189C432.646 80.4766 431.652 78.6757 430.657 76.9092C426.922 70.2992 422.718 63.9648 418.077 57.9545L417.332 58.5134C421.826 64.5675 425.931 70.9008 429.622 77.475C430.616 79.2277 431.594 81.0194 432.556 82.8503C432.798 83.3126 433.039 83.768 433.247 84.2303L433.612 84.9203L434.103 85.907C434.793 87.2871 435.484 88.5843 436.174 90.0471C438.936 95.8364 441.594 102.24 444.197 108.339C446.027 103.999 447.953 99.4935 449.886 95.098L451.35 91.8343L452.849 88.6602L454.333 85.6655L454.706 84.9272L454.968 84.4166L455.5 83.3954C458.331 77.9649 461.376 72.7001 464.607 67.7389C470.523 58.53 477.417 49.9864 485.169 42.2566C484.444 43.0018 483.732 43.6366 483.097 44.3266L481.399 46.2518C480.349 47.4524 479.438 48.4667 478.685 49.3638C477.242 51.213 476.31 52.4688 475.716 53.3245C474.529 55.0426 474.715 55.1875 474.957 55.3945L471.035 60.5972C469.744 62.343 468.494 64.1301 467.279 65.9311C464.849 69.5329 462.549 73.2383 460.374 77.0127C459.277 78.8965 458.22 80.8078 457.185 82.7329L455.617 85.7345L454.45 88.0599L453.863 89.226L453.277 90.468L452.096 92.9728C451.702 93.8146 451.323 94.6909 450.936 95.5466C450.17 97.2509 449.41 98.9966 448.651 100.77L444.176 111.203L440.034 101.425C438.653 98.1479 437.272 94.8772 435.794 91.7653L434.703 89.4468L433.675 87.3009L432.653 85.2308L431.962 83.8508C431.042 82.0429 430.077 80.2535 429.069 78.4825C425.131 71.4047 420.67 64.6306 415.723 58.2167C410.858 51.7906 405.428 45.812 399.497 40.3522C393.593 34.973 387.109 30.2659 380.165 26.3172C394.153 34.5974 406.215 46.1759 416.068 59.438C409.26 51.0023 401.627 43.2658 393.283 36.3432C387.953 32.0679 382.248 28.2827 376.236 25.0338C369.761 21.5379 362.9 18.81 355.792 16.9054C334.001 11.1171 310.84 13.5744 290.751 23.8056L288.473 24.9993C287.72 25.3995 286.96 25.7652 286.249 26.2206L282.003 28.8013C280.622 29.6983 279.331 30.6436 278.026 31.5613C276.721 32.4791 275.506 33.4037 274.311 34.349Z" fill="#24244C"/>
</svg>
