<svg width="34" height="32" viewBox="0 0 34 32" fill="none" xmlns="http://www.w3.org/2000/svg">
<path d="M10.0587 7.60754H9.36187C7.14416 7.60754 5.01729 8.48852 3.44913 10.0567C1.88098 11.6248 1 13.7517 1 15.9694C1 18.1871 1.88098 20.314 3.44913 21.8821C5.01729 23.4503 7.14416 24.3313 9.36187 24.3313H19.8142L11.313 30.8814C11.0092 31.1155 10.7555 30.9929 10.7555 30.6027V24.3313" stroke="#3300FF" stroke-linecap="round" stroke-linejoin="round"/>
<path d="M23.9953 24.3313H24.6921C26.9098 24.3313 29.0367 23.4503 30.6048 21.8821C32.173 20.314 33.0539 18.1871 33.0539 15.9694C33.0539 13.7517 32.173 11.6248 30.6048 10.0567C29.0367 8.48852 26.9098 7.60754 24.6921 7.60754H14.2397L22.741 1.11734C23.0448 0.884598 23.2984 1.00863 23.2984 1.39607V7.60754" stroke="#3300FF" stroke-linecap="round" stroke-linejoin="round"/>
</svg>
