<svg width="39" height="32" viewBox="0 0 39 32" fill="none" xmlns="http://www.w3.org/2000/svg">
<path d="M21.5154 27.5714H16.3726" stroke="#3300FF" stroke-linecap="round" stroke-linejoin="round"/>
<path d="M37.0056 19.9292C37.1782 20.0857 37.3173 20.2756 37.4145 20.4874C37.5117 20.6993 37.5649 20.9286 37.571 21.1615C37.5771 21.3945 37.5359 21.6263 37.4499 21.8428C37.3639 22.0594 37.235 22.2564 37.0708 22.4217C34.3948 25.1012 27.529 30.9932 18.9439 30.9932C10.8473 30.9932 4.02961 24.8766 1.48904 22.2709C1.18403 21.9592 1.00928 21.543 1.00036 21.1069C0.991441 20.6709 1.14903 20.2479 1.44104 19.924C3.93876 17.14 10.7959 10.4286 18.9439 10.4286C25.7856 10.4286 33.9182 17.1366 37.0056 19.9292Z" stroke="#3300FF" stroke-linecap="round" stroke-linejoin="round"/>
<path d="M18.9438 6.14286V1" stroke="#3300FF" stroke-linecap="round" stroke-linejoin="round"/>
<path d="M12.0866 6.1428L11.2295 2.71423" stroke="#3300FF" stroke-linecap="round" stroke-linejoin="round"/>
<path d="M7.8012 8.71425L6.08691 6.14282" stroke="#3300FF" stroke-linecap="round" stroke-linejoin="round"/>
<path d="M4.3727 12.1428L1.80127 9.57141" stroke="#3300FF" stroke-linecap="round" stroke-linejoin="round"/>
<path d="M25.8008 6.1428L26.6579 2.71423" stroke="#3300FF" stroke-linecap="round" stroke-linejoin="round"/>
<path d="M30.0869 8.71425L31.8012 6.14282" stroke="#3300FF" stroke-linecap="round" stroke-linejoin="round"/>
<path d="M33.5151 12.1428L36.0866 9.57141" stroke="#3300FF" stroke-linecap="round" stroke-linejoin="round"/>
<path d="M23.2296 18.1429C23.2328 17.4116 23.0488 16.6916 22.6952 16.0515C22.3415 15.4114 21.8299 14.8724 21.2091 14.4859C20.5882 14.0994 19.8788 13.8781 19.1483 13.8433C18.4178 13.8084 17.6906 13.961 17.0357 14.2866C16.3809 14.6122 15.8203 15.1 15.4072 15.7035C14.9942 16.307 14.7424 17.0062 14.676 17.7345C14.6095 18.4628 14.7305 19.196 15.0274 19.8643C15.3244 20.5326 15.7874 21.1138 16.3724 21.5526V24.1429H21.5153V21.5526C22.0461 21.1564 22.4774 20.6419 22.7749 20.0501C23.0725 19.4583 23.2281 18.8053 23.2296 18.1429Z" stroke="#3300FF" stroke-linecap="round" stroke-linejoin="round"/>
<path d="M8.6582 20.7143C8.6582 23.4422 9.74187 26.0585 11.6708 27.9874C13.5998 29.9163 16.216 31 18.9439 31C21.6719 31 24.2881 29.9163 26.217 27.9874C28.146 26.0585 29.2296 23.4422 29.2296 20.7143C29.2296 17.9864 28.146 15.3702 26.217 13.4412C24.2881 11.5123 21.6719 10.4286 18.9439 10.4286C16.216 10.4286 13.5998 11.5123 11.6708 13.4412C9.74187 15.3702 8.6582 17.9864 8.6582 20.7143V20.7143Z" stroke="#3300FF" stroke-linecap="round" stroke-linejoin="round"/>
</svg>
