<svg width="34" height="32" viewBox="0 0 34 32" fill="none" xmlns="http://www.w3.org/2000/svg">
<path d="M24.3537 5.09091C24.5921 5.23397 24.7894 5.43636 24.9263 5.67836C25.0631 5.92035 25.135 6.19369 25.1348 6.47171V13.2573L17.0899 18.4323L9.04492 13.2573V6.47171C9.04472 6.19369 9.11657 5.92035 9.25346 5.67836C9.39035 5.43636 9.58761 5.23397 9.82601 5.09091L16.262 1.22934C16.512 1.07927 16.7982 1 17.0899 1C17.3815 1 17.6677 1.07927 17.9178 1.22934L24.3537 5.09091Z" stroke="#3300FF" stroke-linecap="round" stroke-linejoin="round"/>
<path d="M17.0898 10.3875V18.4324" stroke="#3300FF" stroke-linecap="round" stroke-linejoin="round"/>
<path d="M25.1348 23.2594L17.0898 18.4324L25.1348 13.2573L32.4484 17.957C32.6735 18.1036 32.8584 18.3042 32.9862 18.5405C33.1139 18.7768 33.1805 19.0414 33.1797 19.31V25.2516C33.1805 25.5202 33.1139 25.7848 32.9862 26.0211C32.8584 26.2575 32.6735 26.4581 32.4484 26.6046L26.0124 30.7441C25.7528 30.911 25.4507 30.9998 25.1421 30.9998C24.8335 30.9998 24.5314 30.911 24.2718 30.7441L17.0898 26.1292V18.4324" stroke="#3300FF" stroke-linecap="round" stroke-linejoin="round"/>
<path d="M25.1348 23.2593V31" stroke="#3300FF" stroke-linecap="round" stroke-linejoin="round"/>
<path d="M17.0899 18.4324V26.1292L9.92257 30.7441C9.663 30.911 9.36088 30.9998 9.05226 30.9998C8.74363 30.9998 8.44152 30.911 8.18194 30.7441L1.74599 26.6046C1.51811 26.4598 1.33034 26.26 1.19997 26.0235C1.0696 25.7871 1.00084 25.5216 1.00001 25.2516V19.31C0.999263 19.0414 1.0658 18.7768 1.19355 18.5405C1.3213 18.3042 1.50619 18.1036 1.73136 17.957L9.04494 13.2573L17.0899 18.4324ZM17.0899 18.4324L9.04494 23.2594" stroke="#3300FF" stroke-linecap="round" stroke-linejoin="round"/>
<path d="M9.04473 23.2593L1.19141 18.5479" stroke="#3300FF" stroke-linecap="round" stroke-linejoin="round"/>
<path d="M9.04492 23.2593V31" stroke="#3300FF" stroke-linecap="round" stroke-linejoin="round"/>
<path d="M17.0897 10.3874L9.25098 5.68335" stroke="#3300FF" stroke-linecap="round" stroke-linejoin="round"/>
<path d="M24.9285 5.68335L17.0898 10.3874" stroke="#3300FF" stroke-linecap="round" stroke-linejoin="round"/>
<path d="M32.9881 18.5479L25.1348 23.2593" stroke="#3300FF" stroke-linecap="round" stroke-linejoin="round"/>
</svg>
