<svg xmlns="http://www.w3.org/2000/svg" viewBox="0 0 24 24" height="24" width="24"><defs></defs><title>help-wheel</title><path d="M0.5 12.001a11.5 11.5 0 1 0 23 0 11.5 11.5 0 1 0 -23 0" fill="none" stroke="#3300ff" stroke-linecap="round" stroke-linejoin="round" stroke-width="1"></path><path d="M6 12.001a6 6 0 1 0 12 0 6 6 0 1 0 -12 0" fill="none" stroke="#3300ff" stroke-linecap="round" stroke-linejoin="round" stroke-width="1"></path><path d="m21.423 5.406 -4.008 4.008" fill="none" stroke="#3300ff" stroke-linecap="round" stroke-linejoin="round" stroke-width="1"></path><path d="m14.587 6.585 4.02 -4.02" fill="none" stroke="#3300ff" stroke-linecap="round" stroke-linejoin="round" stroke-width="1"></path><path d="m5.405 21.424 4.008 -4.008" fill="none" stroke="#3300ff" stroke-linecap="round" stroke-linejoin="round" stroke-width="1"></path><path d="m6.585 14.588 -4.008 4.008" fill="none" stroke="#3300ff" stroke-linecap="round" stroke-linejoin="round" stroke-width="1"></path><path d="m18.602 21.419 -4.007 -4.007" fill="none" stroke="#3300ff" stroke-linecap="round" stroke-linejoin="round" stroke-width="1"></path><path d="m17.419 14.58 4.009 4.009" fill="none" stroke="#3300ff" stroke-linecap="round" stroke-linejoin="round" stroke-width="1"></path><path d="m2.582 5.399 4.006 4.007" fill="none" stroke="#3300ff" stroke-linecap="round" stroke-linejoin="round" stroke-width="1"></path><path d="M9.421 6.581 5.412 2.572" fill="none" stroke="#3300ff" stroke-linecap="round" stroke-linejoin="round" stroke-width="1"></path></svg>
