<svg width="34" height="31" viewBox="0 0 34 31" fill="none" xmlns="http://www.w3.org/2000/svg">
<path d="M1.98363 20.8482L18.8041 14.8749C19.0958 14.7712 19.4191 14.8086 19.6796 14.9761L32.2322 23.0476C32.9406 23.503 32.8031 24.5766 32.0029 24.8389L15.1706 30.3567C14.8931 30.4477 14.5897 30.4128 14.34 30.2612L1.79921 22.6453C1.0789 22.2079 1.18949 21.1303 1.98363 20.8482Z" stroke="#3300FF"/>
<path d="M1.98363 13.4798L18.8041 7.50644C19.0958 7.40283 19.4191 7.44021 19.6796 7.60766L32.2322 15.6792C32.9406 16.1346 32.8031 17.2082 32.0029 17.4705L15.1706 22.9883C14.8931 23.0793 14.5897 23.0444 14.34 22.8928L1.79921 15.2769C1.0789 14.8395 1.18949 13.7618 1.98363 13.4798Z" fill="#EDF5F3" stroke="#3300FF"/>
<path d="M1.98363 6.63767L18.8041 0.66428C19.0958 0.560666 19.4191 0.598045 19.6796 0.765501L32.2322 8.83699C32.9406 9.29247 32.8031 10.366 32.0029 10.6284L15.1706 16.1461C14.8931 16.2371 14.5897 16.2022 14.34 16.0506L1.79921 8.43474C1.0789 7.99731 1.18949 6.91969 1.98363 6.63767Z" fill="#EDF5F3" stroke="#3300FF"/>
</svg>
