<svg viewBox="0 0 32 32" height="32" width="32" xmlns="http://www.w3.org/2000/svg"><g transform="matrix(1.3333333333333333,0,0,1.3333333333333333,0,0)"><path d="M0.500 0.501 L23.500 0.501 L23.500 23.501 L0.500 23.501 Z" fill="none" stroke="#3300FF" stroke-linecap="round" stroke-linejoin="round"></path><path d="M10.000 5.501 A2.000 2.000 0 1 0 14.000 5.501 A2.000 2.000 0 1 0 10.000 5.501 Z" fill="none" stroke="#3300FF" stroke-linecap="round" stroke-linejoin="round"></path><path d="M13.998 5.501L20.521 5.501" fill="none" stroke="#3300FF" stroke-linecap="round" stroke-linejoin="round"></path><path d="M3.521 5.501L9.996 5.501" fill="none" stroke="#3300FF" stroke-linecap="round" stroke-linejoin="round"></path><path d="M6.000 12.001 A2.000 2.000 0 1 0 10.000 12.001 A2.000 2.000 0 1 0 6.000 12.001 Z" fill="none" stroke="#3300FF" stroke-linecap="round" stroke-linejoin="round"></path><path d="M9.996 12.001L20.521 12.001" fill="none" stroke="#3300FF" stroke-linecap="round" stroke-linejoin="round"></path><path d="M3.521 12.001L5.996 12.001" fill="none" stroke="#3300FF" stroke-linecap="round" stroke-linejoin="round"></path><path d="M8.000 18.501 A2.000 2.000 0 1 0 12.000 18.501 A2.000 2.000 0 1 0 8.000 18.501 Z" fill="none" stroke="#3300FF" stroke-linecap="round" stroke-linejoin="round"></path><path d="M11.996 18.501L20.521 18.501" fill="none" stroke="#3300FF" stroke-linecap="round" stroke-linejoin="round"></path><path d="M3.521 18.501L8 18.501" fill="none" stroke="#3300FF" stroke-linecap="round" stroke-linejoin="round"></path></g></svg>