<svg width="34" height="32" viewBox="0 0 34 32" fill="none" xmlns="http://www.w3.org/2000/svg">
<path d="M27 12.4792L32.3359 16.1501C33.0178 16.6193 32.8671 17.6664 32.0806 17.9242L15.1706 23.4675C14.8931 23.5585 14.5897 23.5236 14.34 23.372L1.79921 15.7561C1.0789 15.3187 1.18949 14.241 1.98363 13.959L7.5 12" stroke="#3300FF"/>
<path d="M1.98363 6.63767L18.8041 0.66428C19.0958 0.560666 19.4191 0.598045 19.6796 0.765501L32.2322 8.83699C32.9406 9.29247 32.8031 10.366 32.0029 10.6284L15.1706 16.1461C14.8931 16.2371 14.5897 16.2022 14.34 16.0506L1.79921 8.43474C1.0789 7.99731 1.18949 6.91969 1.98363 6.63767Z" stroke="#3300FF"/>
<path d="M27 19.4792L32.3359 23.1501C33.0178 23.6193 32.8671 24.6664 32.0806 24.9242L15.1706 30.4675C14.8931 30.5585 14.5897 30.5236 14.34 30.372L1.79921 22.7561C1.0789 22.3187 1.18949 21.241 1.98363 20.959L7.5 19" stroke="#3300FF"/>
</svg>
