<svg width="32" height="32" viewBox="0 0 32 32" fill="none" xmlns="http://www.w3.org/2000/svg">
<path d="M24.1512 3.28356C22.7674 4.6673 20.1864 4.53558 17.9563 2.30542L16 4.2604L26.4335 14.6939L30.9982 10.1292L24.1512 3.28356Z" stroke="#3300FF" stroke-linecap="round" stroke-linejoin="round"/>
<path d="M15.9202 13.3114L10.9734 8.36594C11.4101 7.4 11.5422 6.32394 11.3521 5.28106C11.162 4.23817 10.6586 3.27796 9.9091 2.5283C9.15958 1.77864 8.19946 1.27512 7.15661 1.08478C6.11376 0.894445 5.03768 1.02633 4.07166 1.46288L6.87044 4.26036V6.86873H4.26207L1.46328 4.07125C1.02656 5.03719 0.894465 6.11325 1.0846 7.15614C1.27474 8.19902 1.77809 9.15923 2.52761 9.90889C3.27712 10.6585 4.23724 11.1621 5.28009 11.3524C6.32294 11.5427 7.39902 11.4109 8.36504 10.9743L13.3118 15.9198" stroke="#3300FF" stroke-linecap="round" stroke-linejoin="round"/>
<path d="M16.0791 18.6873L21.0259 23.6341C20.5892 24.6 20.4571 25.6761 20.6472 26.719C20.8373 27.7619 21.3407 28.7221 22.0902 29.4717C22.8397 30.2214 23.7998 30.7249 24.8427 30.9153C25.8855 31.1056 26.9616 30.9737 27.9276 30.5372L25.1289 27.7358V25.1274H27.7372L30.536 27.9275C30.9727 26.9615 31.1048 25.8855 30.9147 24.8426C30.7246 23.7997 30.2212 22.8395 29.4717 22.0898C28.7222 21.3402 27.7621 20.8367 26.7192 20.6463C25.6764 20.456 24.6003 20.5879 23.6343 21.0244L18.6875 16.0776" stroke="#3300FF" stroke-linecap="round" stroke-linejoin="round"/>
<path d="M20.4849 8.74683L1.57414 27.6575C1.20715 28.0245 1.00098 28.5223 1.00098 29.0413C1.00098 29.5603 1.20715 30.058 1.57414 30.425C1.94113 30.792 2.43888 30.9982 2.95788 30.9982C3.47689 30.9982 3.97464 30.792 4.34163 30.425L23.2523 11.5143" stroke="#3300FF" stroke-linecap="round" stroke-linejoin="round"/>
</svg>
