<svg width="32" height="32" viewBox="0 0 32 32" fill="none" xmlns="http://www.w3.org/2000/svg">
<path d="M26.0527 18.4736C26.0527 20.9511 25.3181 23.373 23.9417 25.4329C22.5653 27.4929 20.6089 29.0984 18.32 30.0465C16.0311 30.9946 13.5125 31.2426 11.0826 30.7593C8.65272 30.276 6.42074 29.083 4.66889 27.3311C2.91705 25.5793 1.72403 23.3473 1.2407 20.9174C0.757364 18.4875 1.00543 15.9689 1.95352 13.68C2.90161 11.3911 4.50715 9.43475 6.5671 8.05834C8.62705 6.68192 11.0489 5.94727 13.5264 5.94727" stroke="#3300FF" stroke-linecap="round" stroke-linejoin="round"/>
<path d="M26.053 13.856H18.1416V5.94458" stroke="#3300FF" stroke-linecap="round" stroke-linejoin="round"/>
<path d="M18.1416 13.856L30.9976 1" stroke="#3300FF" stroke-linecap="round" stroke-linejoin="round"/>
<path d="M12.5878 15.3091C12.0164 15.4795 11.5019 15.8017 11.0991 16.2414C10.6963 16.6811 10.4203 17.2218 10.3006 17.806C10.1808 18.3901 10.2217 18.9958 10.419 19.5585C10.6163 20.1212 10.9625 20.6199 11.4207 21.0014C11.879 21.383 12.4322 21.633 13.0214 21.725C13.6105 21.817 14.2136 21.7474 14.7663 21.5237C15.3191 21.3 15.8008 20.9306 16.1602 20.4548C16.5196 19.979 16.7432 19.4146 16.8072 18.8217" stroke="#3300FF" stroke-linecap="round" stroke-linejoin="round"/>
<path d="M13.7808 10.5622C12.2129 10.5067 10.6639 10.9186 9.33059 11.7456C7.99733 12.5725 6.94005 13.7773 6.29316 15.2066C5.64627 16.636 5.43896 18.2254 5.6976 19.7728C5.95624 21.3203 6.66914 22.7559 7.74568 23.8972C8.82223 25.0385 10.2138 25.8339 11.7435 26.1824C13.2733 26.5309 14.8721 26.4167 16.3367 25.8543C17.8014 25.2919 19.0657 24.3067 19.9691 23.0239C20.8725 21.7412 21.374 20.2188 21.4101 18.6503" stroke="#3300FF" stroke-linecap="round" stroke-linejoin="round"/>
</svg>
