<svg width="33" height="32" viewBox="0 0 33 32" fill="none" xmlns="http://www.w3.org/2000/svg">
<path d="M31.8053 13.263L16.7765 28.2932C15.0433 30.0263 12.6927 31 10.2416 31C7.7906 31 5.43996 30.0263 3.70681 28.2932C1.97367 26.56 1 24.2094 1 21.7584C1 19.3073 1.97367 16.9567 3.70681 15.2235L16.0508 2.8809C16.6192 2.29245 17.299 1.82309 18.0507 1.5002C18.8023 1.1773 19.6108 1.00734 20.4289 1.00023C21.2469 0.993124 22.0582 1.14901 22.8154 1.45879C23.5725 1.76858 24.2604 2.22605 24.8389 2.80453C25.4174 3.38301 25.8749 4.0709 26.1847 4.82807C26.4944 5.58524 26.6503 6.39653 26.6432 7.21459C26.6361 8.03265 26.4661 8.8411 26.1433 9.59278C25.8204 10.3444 25.351 11.0243 24.7626 11.5926L12.4199 23.9421C11.839 24.5033 11.0609 24.814 10.2532 24.8071C9.44549 24.8002 8.67281 24.4763 8.10156 23.9053C7.53032 23.3342 7.20622 22.5616 7.19908 21.7539C7.19193 20.9462 7.50231 20.168 8.06336 19.5869L20.4074 7.23881" stroke="#3300FF" stroke-linecap="round" stroke-linejoin="round"/>
</svg>
